<svg id="svg" version="1.1" xmlns="http://www.w3.org/2000/svg" xmlns:xlink="http://www.w3.org/1999/xlink" width="400" height="400" viewBox="0, 0, 400,400"><g id="svgg"><path id="path0" d="M199.800 79.098 C 198.676 79.756,195.029 79.813,141.886 80.000 L 85.171 80.200 83.486 82.000 L 81.800 83.800 81.800 154.728 C 81.800 221.863,81.837 225.677,82.500 226.048 C 82.885 226.263,83.200 226.701,83.200 227.020 C 83.200 227.339,83.373 227.600,83.584 227.600 C 83.796 227.600,84.299 227.955,84.703 228.388 C 85.416 229.153,86.152 229.179,110.037 229.288 C 132.678 229.391,134.721 229.456,135.704 230.100 C 136.697 230.751,138.883 230.800,166.967 230.800 C 189.030 230.800,197.437 230.925,198.181 231.264 L 199.200 231.728 199.200 239.818 C 199.200 247.868,199.196 247.908,198.300 248.148 C 197.805 248.281,183.787 248.392,167.149 248.395 C 141.172 248.399,136.695 248.485,135.462 249.000 C 134.566 249.374,132.742 249.600,130.613 249.600 L 127.200 249.600 127.200 254.151 L 127.200 258.701 198.500 258.989 C 237.715 259.148,270.610 259.215,271.600 259.139 L 273.400 259.000 273.524 255.600 C 273.592 253.730,273.536 251.435,273.400 250.500 L 273.151 248.800 269.994 248.800 C 268.258 248.800,266.379 248.591,265.819 248.336 L 264.800 247.872 264.800 239.816 C 264.800 234.084,264.938 231.622,265.280 231.280 C 265.642 230.918,271.379 230.797,288.580 230.787 C 314.192 230.772,314.217 230.770,317.106 227.880 C 319.213 225.774,319.151 227.967,319.166 154.600 C 319.183 76.064,319.566 82.094,314.400 79.643 L 312.200 78.600 256.600 78.498 C 204.201 78.402,200.931 78.436,199.800 79.098 M306.400 86.589 C 306.730 86.866,307.492 87.209,308.094 87.352 C 308.864 87.535,309.257 87.936,309.422 88.706 C 309.550 89.308,309.823 90.213,310.028 90.719 C 310.641 92.231,310.482 216.557,309.864 218.898 C 309.275 221.131,308.930 221.533,306.913 222.338 C 304.496 223.304,95.673 224.002,94.219 223.049 C 93.674 222.692,92.890 222.400,92.476 222.400 C 91.459 222.400,90.424 221.179,89.874 219.329 C 89.367 217.624,88.970 92.288,89.468 91.200 C 89.619 90.870,89.936 89.894,90.172 89.032 C 90.511 87.791,90.868 87.374,91.882 87.032 C 92.588 86.794,93.398 86.357,93.682 86.060 C 94.423 85.288,305.476 85.813,306.400 86.589 M199.600 269.322 C 198.845 269.683,184.169 269.856,139.800 270.029 C 84.218 270.246,78.800 270.356,78.800 271.266 C 78.800 271.471,78.440 272.384,78.000 273.294 C 76.752 275.877,76.752 324.153,78.000 326.600 C 78.440 327.463,78.800 328.376,78.800 328.629 C 78.800 329.903,83.165 330.000,140.194 330.000 C 189.790 330.000,197.315 330.077,199.093 330.605 C 200.879 331.136,208.410 331.197,260.065 331.105 C 325.747 330.988,319.840 331.243,322.286 328.422 L 323.171 327.400 323.186 299.989 L 323.200 272.578 322.039 271.389 C 321.401 270.735,320.550 269.930,320.149 269.600 C 319.171 268.796,201.270 268.524,199.600 269.322 M105.112 284.303 C 105.266 290.991,105.416 290.800,100.000 290.800 C 94.643 290.800,94.800 290.991,94.800 284.493 C 94.800 278.715,94.347 279.153,100.178 279.288 L 105.000 279.400 105.112 284.303 M127.421 280.023 C 128.787 281.532,128.779 287.888,127.409 289.517 L 126.329 290.800 121.979 290.800 C 118.087 290.800,117.584 290.718,117.214 290.026 C 116.763 289.183,116.633 279.900,117.067 279.467 C 117.814 278.719,126.671 279.195,127.421 280.023 M149.771 279.829 C 150.990 281.047,150.659 288.938,149.346 289.971 C 147.840 291.156,140.983 291.201,139.544 290.035 C 138.397 289.105,138.087 281.139,139.149 279.861 C 139.937 278.912,148.827 278.885,149.771 279.829 M171.920 279.680 C 172.682 280.442,172.566 288.785,171.777 289.911 C 170.841 291.248,163.144 291.263,161.726 289.930 C 160.475 288.755,160.290 280.337,161.500 279.632 C 162.517 279.039,171.320 279.080,171.920 279.680 M193.920 279.680 C 194.236 279.996,194.400 281.678,194.400 284.591 C 194.400 290.802,194.402 290.800,188.757 290.800 L 184.359 290.800 183.731 289.300 C 182.981 287.507,183.166 280.806,183.993 279.809 C 184.641 279.027,193.157 278.917,193.920 279.680 M215.520 280.080 C 216.322 280.882,216.163 288.580,215.328 289.415 C 214.430 290.313,206.974 290.121,206.382 289.185 C 205.876 288.385,205.901 281.332,206.414 280.374 C 206.913 279.441,214.632 279.192,215.520 280.080 M237.600 279.991 C 238.055 280.278,238.233 281.379,238.335 284.552 C 238.509 289.922,238.239 290.186,232.831 289.927 C 227.941 289.693,227.899 289.646,228.066 284.507 C 228.228 279.516,228.126 279.612,233.200 279.612 C 235.290 279.612,237.270 279.783,237.600 279.991 M260.409 280.400 C 260.617 280.730,260.791 282.733,260.794 284.851 C 260.802 289.761,260.760 289.800,255.600 289.800 C 250.431 289.800,250.400 289.770,250.400 284.780 C 250.400 279.526,250.439 279.489,255.878 279.665 C 259.025 279.767,260.122 279.945,260.409 280.400 M282.320 280.080 C 282.999 280.759,282.982 289.040,282.300 289.462 C 281.127 290.188,274.406 290.129,273.585 289.386 C 272.693 288.579,272.417 281.863,273.214 280.374 C 273.713 279.441,281.432 279.192,282.320 280.080 M304.635 280.057 C 304.790 280.308,305.005 282.193,305.113 284.245 C 305.400 289.735,305.164 290.000,300.000 290.000 C 294.836 290.000,294.600 289.735,294.887 284.245 C 295.143 279.359,294.878 279.600,300.000 279.600 C 302.831 279.600,304.451 279.760,304.635 280.057 M117.569 294.636 C 119.044 295.876,119.459 302.481,118.177 304.311 C 117.447 305.353,108.656 305.696,107.680 304.720 C 107.012 304.052,107.048 295.633,107.723 294.747 C 108.910 293.187,115.756 293.110,117.569 294.636 M139.489 294.389 C 141.085 295.362,141.345 296.349,141.122 300.593 C 140.879 305.231,140.920 305.200,135.000 305.200 C 128.905 305.200,129.139 305.432,129.286 299.543 L 129.400 295.000 130.800 294.301 C 132.831 293.286,137.762 293.336,139.489 294.389 M161.389 294.170 C 163.054 294.865,163.378 296.128,163.125 300.938 C 162.890 305.411,163.173 305.200,157.405 305.200 C 151.080 305.200,151.198 305.301,151.206 299.871 C 151.213 295.520,151.270 295.316,152.789 294.277 C 154.054 293.411,159.414 293.344,161.389 294.170 M184.151 294.359 C 184.727 294.837,184.807 295.637,184.712 299.959 L 184.600 305.000 179.685 305.112 L 174.770 305.225 174.185 303.825 C 173.151 301.350,173.400 296.537,174.648 294.902 L 175.696 293.528 179.587 293.664 C 182.156 293.754,183.708 293.990,184.151 294.359 M206.205 294.951 C 206.693 295.697,206.803 296.843,206.714 300.251 L 206.600 304.600 202.004 304.906 C 199.476 305.074,197.181 305.125,196.904 305.018 C 196.211 304.753,196.190 295.170,196.880 294.480 C 197.889 293.471,205.486 293.855,206.205 294.951 M228.320 295.280 C 228.630 295.590,228.800 297.191,228.800 299.800 C 228.800 302.409,228.630 304.010,228.320 304.320 C 228.010 304.630,226.409 304.800,223.800 304.800 C 218.726 304.800,218.800 304.874,218.800 299.800 C 218.800 297.191,218.970 295.590,219.280 295.280 C 219.590 294.970,221.191 294.800,223.800 294.800 C 226.409 294.800,228.010 294.970,228.320 295.280 M250.756 295.454 C 251.646 296.078,251.683 296.289,251.525 299.902 C 251.314 304.719,251.222 304.800,245.952 304.800 C 240.875 304.800,240.800 304.728,240.800 299.800 C 240.800 294.874,240.876 294.800,245.940 294.800 C 248.887 294.800,250.047 294.958,250.756 295.454 M273.120 295.280 C 273.430 295.590,273.600 297.191,273.600 299.800 C 273.600 302.409,273.430 304.010,273.120 304.320 C 272.544 304.896,264.901 304.978,264.015 304.418 C 263.079 303.826,262.887 296.370,263.785 295.472 C 264.620 294.637,272.318 294.478,273.120 295.280 M295.120 295.280 C 295.430 295.590,295.600 297.191,295.600 299.800 C 295.600 302.409,295.430 304.010,295.120 304.320 C 294.810 304.630,293.209 304.800,290.600 304.800 C 285.526 304.800,285.600 304.874,285.600 299.800 C 285.600 297.191,285.770 295.590,286.080 295.280 C 286.390 294.970,287.991 294.800,290.600 294.800 C 293.209 294.800,294.810 294.970,295.120 295.280 M105.113 315.596 C 105.252 321.719,105.351 321.600,100.097 321.600 C 94.657 321.600,94.800 321.755,94.800 315.853 C 94.800 309.893,94.339 310.353,100.178 310.488 L 105.000 310.600 105.113 315.596 M127.392 310.945 C 128.177 311.519,128.777 317.244,128.265 319.282 C 127.744 321.360,120.955 322.565,117.819 321.136 C 116.812 320.677,116.158 311.575,117.067 310.667 C 117.603 310.130,126.610 310.373,127.392 310.945 M149.626 310.814 C 150.322 311.187,150.400 311.690,150.400 315.834 L 150.400 320.441 149.013 321.020 C 145.297 322.573,138.976 321.543,138.558 319.317 C 138.142 317.099,138.628 311.155,139.259 310.755 C 140.028 310.268,148.697 310.317,149.626 310.814 M238.600 311.259 C 239.960 312.553,239.243 320.132,237.705 320.724 C 235.606 321.533,163.603 321.829,162.069 321.036 L 160.800 320.379 160.800 315.810 C 160.800 311.890,160.900 311.178,161.500 310.804 C 162.402 310.242,238.000 310.689,238.600 311.259 M260.026 311.214 C 260.715 311.583,260.800 312.085,260.800 315.800 C 260.800 320.839,260.840 320.800,255.600 320.800 C 250.369 320.800,250.400 320.829,250.400 315.866 C 250.400 313.206,250.569 311.591,250.880 311.280 C 251.482 310.678,258.924 310.624,260.026 311.214 M282.714 315.342 C 282.860 320.913,282.961 320.800,277.831 320.800 C 272.722 320.800,272.800 320.878,272.800 315.800 C 272.800 310.634,272.676 310.747,278.192 310.888 L 282.600 311.000 282.714 315.342 M304.635 311.257 C 305.166 312.116,305.326 319.016,304.837 319.931 C 304.403 320.742,304.078 320.800,300.000 320.800 C 294.621 320.800,294.608 320.786,294.890 315.388 C 295.143 310.567,294.883 310.800,300.000 310.800 C 302.831 310.800,304.451 310.960,304.635 311.257 " stroke="none" fill="#20306a" fill-rule="evenodd"></path><path id="path1" d="M93.714 87.481 C 93.226 87.575,92.371 88.194,91.814 88.857 L 90.800 90.061 90.800 154.600 L 90.800 219.139 91.807 220.335 C 93.348 222.166,89.465 222.114,201.512 221.796 L 306.875 221.497 307.938 220.583 L 309.000 219.669 309.000 154.649 C 309.000 81.481,309.337 88.749,305.900 87.721 C 304.268 87.233,96.212 86.997,93.714 87.481 M95.777 280.916 C 95.662 281.215,95.620 283.157,95.684 285.230 L 95.800 289.000 100.000 289.000 L 104.200 289.000 104.200 284.800 L 104.200 280.600 100.093 280.486 C 96.918 280.398,95.938 280.495,95.777 280.916 M118.022 281.159 C 117.790 281.593,117.600 283.393,117.600 285.160 C 117.600 289.125,117.797 289.278,122.703 289.116 L 126.200 289.000 126.200 284.800 L 126.200 280.600 122.322 280.486 C 118.808 280.382,118.404 280.446,118.022 281.159 M140.414 281.174 C 140.186 281.599,140.000 283.393,140.000 285.160 C 140.000 289.055,140.169 289.200,144.694 289.200 C 148.646 289.200,148.800 289.046,148.800 285.094 C 148.800 280.503,148.703 280.400,144.400 280.400 C 141.278 280.400,140.776 280.497,140.414 281.174 M162.643 281.033 C 162.193 282.204,162.379 288.219,162.880 288.720 C 163.477 289.317,169.338 289.368,170.426 288.786 C 171.354 288.289,171.597 281.757,170.720 280.880 C 169.940 280.100,162.950 280.232,162.643 281.033 M184.652 281.300 C 184.215 282.932,184.377 288.217,184.880 288.720 C 185.183 289.023,186.702 289.200,189.000 289.200 C 193.485 289.200,193.602 289.099,193.595 285.220 C 193.585 280.190,193.785 280.400,189.000 280.400 C 185.079 280.400,184.882 280.441,184.652 281.300 M207.080 281.453 C 206.926 281.607,206.800 283.230,206.800 285.059 C 206.800 288.976,206.707 288.907,211.801 288.719 L 215.000 288.600 215.000 285.000 L 215.000 281.400 211.180 281.286 C 209.079 281.224,207.234 281.299,207.080 281.453 M229.881 281.452 C 229.726 281.607,229.600 283.230,229.600 285.059 C 229.600 288.945,229.569 288.920,234.208 288.720 L 237.000 288.600 237.000 285.000 L 237.000 281.400 233.581 281.286 C 231.701 281.223,230.036 281.298,229.881 281.452 M252.085 284.884 L 252.200 288.600 255.600 288.600 L 259.000 288.600 259.000 285.000 L 259.000 281.400 255.485 281.284 L 251.970 281.168 252.085 284.884 M274.000 284.985 L 274.000 288.800 277.300 288.794 C 281.689 288.786,281.658 288.815,281.517 284.766 L 281.400 281.400 277.700 281.285 L 274.000 281.170 274.000 284.985 M296.000 285.000 L 296.000 288.800 300.000 288.800 L 304.000 288.800 304.000 285.000 L 304.000 281.200 300.000 281.200 L 296.000 281.200 296.000 285.000 M108.852 295.630 C 107.885 296.017,107.631 302.964,108.551 303.884 C 109.287 304.622,116.121 304.523,116.674 303.766 C 117.360 302.828,117.397 296.357,116.720 295.680 C 116.145 295.105,110.258 295.067,108.852 295.630 M131.263 295.705 C 129.974 296.324,130.066 302.874,131.376 303.832 C 132.359 304.550,138.022 304.618,138.720 303.920 C 139.503 303.137,139.370 295.751,138.567 295.443 C 137.509 295.037,132.261 295.225,131.263 295.705 M153.424 295.733 C 152.789 296.197,152.718 296.724,152.867 299.839 C 153.089 304.486,153.014 304.400,156.850 304.400 C 161.535 304.400,161.600 304.337,161.600 299.800 C 161.600 296.480,161.507 295.979,160.826 295.614 C 159.689 295.006,154.301 295.092,153.424 295.733 M175.372 295.728 C 175.261 296.019,175.221 298.044,175.285 300.228 L 175.400 304.200 178.400 304.323 C 180.050 304.390,181.985 304.337,182.700 304.204 L 184.000 303.964 184.000 299.832 L 184.000 295.700 182.750 295.450 C 180.392 294.978,175.590 295.160,175.372 295.728 M197.200 299.744 C 197.200 304.671,196.919 304.424,202.169 304.111 L 206.027 303.881 205.913 299.840 L 205.800 295.800 201.500 295.686 L 197.200 295.573 197.200 299.744 M220.500 295.865 C 220.160 296.002,220.000 297.065,220.000 299.189 C 220.000 303.605,220.440 304.078,224.400 303.920 L 227.400 303.800 227.514 299.700 L 227.628 295.600 224.314 295.632 C 222.491 295.649,220.775 295.754,220.500 295.865 M242.667 295.867 C 242.335 296.198,242.324 301.875,242.652 303.100 C 243.048 304.577,249.042 304.469,249.610 302.974 C 250.280 301.212,250.107 296.127,249.367 295.843 C 248.510 295.514,243.000 295.533,242.667 295.867 M264.667 295.867 C 264.333 296.200,264.313 302.508,264.643 303.367 C 265.095 304.546,270.940 304.256,271.754 303.014 C 272.848 301.344,272.664 296.164,271.500 295.852 C 270.276 295.524,264.998 295.535,264.667 295.867 M286.680 295.853 C 286.337 296.196,286.306 302.489,286.643 303.367 C 286.837 303.873,287.544 304.000,290.166 304.000 C 294.721 304.000,294.862 303.857,294.717 299.393 L 294.600 295.800 290.780 295.686 C 288.679 295.624,286.834 295.699,286.680 295.853 M95.777 311.714 C 95.663 312.013,95.621 314.044,95.685 316.228 L 95.800 320.200 100.000 320.200 L 104.200 320.200 104.200 315.800 L 104.200 311.400 100.093 311.286 C 96.924 311.198,95.938 311.296,95.777 311.714 M118.300 311.624 C 117.712 311.973,117.600 312.645,117.600 315.832 C 117.600 320.341,117.438 320.200,122.600 320.200 L 126.200 320.200 126.200 315.800 L 126.200 311.400 122.600 311.304 C 120.620 311.252,118.685 311.396,118.300 311.624 M140.629 311.829 C 140.151 312.306,140.000 313.314,140.000 316.014 C 140.000 320.266,140.134 320.400,144.400 320.400 C 148.642 320.400,148.800 320.247,148.800 316.160 C 148.800 311.316,148.702 311.200,144.614 311.200 C 142.096 311.200,141.100 311.357,140.629 311.829 M162.900 311.439 C 162.127 311.791,162.210 319.344,162.994 319.995 C 163.461 320.382,171.440 320.414,200.494 320.144 L 237.400 319.800 237.516 316.036 C 237.580 313.966,237.490 312.138,237.316 311.975 C 236.947 311.629,163.643 311.101,162.900 311.439 M252.086 315.700 L 252.200 319.800 255.600 319.800 L 259.000 319.800 259.119 316.601 C 259.308 311.494,259.387 311.600,255.378 311.600 L 251.972 311.600 252.086 315.700 M274.000 315.800 L 274.000 320.000 277.167 320.000 C 281.714 320.000,281.600 320.098,281.600 316.190 C 281.600 311.439,281.742 311.600,277.557 311.600 L 274.000 311.600 274.000 315.800 M296.000 315.800 L 296.000 320.000 300.000 320.000 L 304.000 320.000 304.000 315.800 L 304.000 311.600 300.000 311.600 L 296.000 311.600 296.000 315.800 " stroke="none" fill="#e7e7e8" fill-rule="evenodd"></path><path id="path2" d="M96.602 26.798 C 96.203 27.239,96.062 27.600,96.289 27.600 C 96.792 27.600,97.790 26.457,97.521 26.188 C 97.415 26.082,97.002 26.356,96.602 26.798 M302.400 26.289 C 302.400 26.792,303.543 27.790,303.812 27.521 C 303.918 27.415,303.644 27.002,303.202 26.602 C 302.761 26.203,302.400 26.062,302.400 26.289 M87.129 77.884 C 86.540 77.974,85.843 78.307,85.580 78.624 C 85.317 78.941,84.799 79.200,84.429 79.200 C 83.033 79.200,81.239 81.708,80.412 84.816 C 79.486 88.298,79.135 219.171,80.042 222.600 C 80.275 223.480,80.564 224.740,80.683 225.400 C 80.922 226.720,83.375 229.999,84.127 230.002 C 84.387 230.004,85.140 230.319,85.800 230.702 C 86.898 231.341,89.000 231.410,110.500 231.512 L 134.000 231.624 134.000 239.812 L 134.000 248.000 130.480 248.000 C 125.897 248.000,126.000 247.861,126.000 254.053 L 126.000 259.145 130.408 263.444 C 133.508 266.467,134.666 267.838,134.308 268.065 C 134.029 268.243,121.797 268.391,107.128 268.394 L 80.455 268.400 79.045 269.300 C 78.269 269.795,77.626 270.385,77.617 270.611 C 77.608 270.837,77.236 271.334,76.792 271.714 C 75.994 272.397,75.985 272.742,76.092 300.148 L 76.200 327.891 78.164 329.745 C 79.470 330.979,80.478 331.600,81.175 331.600 C 82.809 331.600,82.731 331.526,109.308 358.177 C 140.208 389.162,142.000 391.017,142.000 392.010 C 142.000 392.518,142.270 392.800,142.756 392.800 C 143.230 392.800,143.490 393.061,143.456 393.500 C 143.408 394.094,143.817 394.218,146.148 394.319 C 148.608 394.426,150.363 395.104,149.755 395.712 C 149.641 395.825,149.965 395.909,150.474 395.898 C 154.276 395.813,156.901 396.173,157.314 396.834 C 157.725 397.493,157.791 397.495,158.279 396.870 C 158.764 396.249,158.784 396.251,158.558 396.900 C 158.339 397.529,158.643 397.600,161.557 397.600 C 164.652 397.600,164.800 397.641,164.806 398.500 C 164.811 399.228,164.886 399.285,165.200 398.800 C 165.458 398.400,165.590 398.367,165.594 398.700 C 165.598 399.069,166.750 399.200,170.000 399.200 C 173.250 399.200,174.402 399.331,174.406 399.700 C 174.411 400.066,174.505 400.054,174.758 399.655 C 175.049 399.194,175.137 399.194,175.321 399.655 C 175.500 400.102,175.616 400.092,175.970 399.600 C 176.352 399.067,176.444 399.067,176.794 399.600 C 177.057 400.001,177.190 400.034,177.194 399.700 C 177.197 399.425,177.470 399.200,177.800 399.200 C 178.130 399.200,178.400 399.380,178.400 399.600 C 178.400 400.242,223.076 400.142,223.335 399.500 C 223.496 399.100,223.543 399.100,223.568 399.500 C 223.604 400.069,225.463 400.191,225.667 399.638 C 225.740 399.438,227.780 399.226,230.200 399.164 C 234.834 399.048,235.349 398.964,234.992 398.388 C 234.864 398.181,234.316 398.193,233.686 398.418 C 232.720 398.762,232.678 398.743,233.309 398.252 C 233.777 397.886,235.264 397.676,237.696 397.632 C 240.065 397.589,241.484 397.393,241.681 397.082 C 241.917 396.711,241.989 396.715,241.994 397.100 C 241.997 397.375,242.405 397.579,242.900 397.554 C 243.611 397.517,243.648 397.468,243.078 397.320 C 241.580 396.932,242.732 396.196,245.025 396.077 C 246.513 396.000,247.683 395.704,248.187 395.277 C 248.942 394.637,248.957 394.638,248.444 395.300 C 247.650 396.325,248.943 396.257,249.981 395.219 C 250.530 394.670,251.452 394.396,253.081 394.296 C 254.997 394.180,255.380 394.037,255.282 393.478 C 255.183 392.907,255.521 392.800,257.420 392.800 C 259.249 392.800,259.710 392.665,259.862 392.085 C 260.012 391.513,260.544 391.346,262.524 391.250 C 266.421 391.062,266.432 391.060,266.222 390.514 C 266.033 390.021,266.874 389.818,268.459 389.972 C 268.854 390.011,269.094 389.767,269.059 389.361 C 269.026 388.990,269.250 388.598,269.556 388.491 C 269.895 388.372,270.002 388.472,269.832 388.748 C 269.678 388.997,269.743 389.200,269.976 389.200 C 270.209 389.200,270.400 389.020,270.400 388.800 C 270.400 388.580,271.041 388.400,271.824 388.400 C 272.607 388.400,273.144 388.232,273.017 388.028 C 272.891 387.823,272.956 387.551,273.163 387.423 C 273.370 387.295,273.622 387.507,273.723 387.895 C 273.863 388.432,273.918 388.385,273.954 387.700 C 273.996 386.871,275.886 386.433,278.076 386.745 C 278.227 386.766,278.452 386.466,278.575 386.078 C 278.983 384.792,281.060 383.841,281.603 384.692 C 282.005 385.321,282.034 385.300,281.865 384.500 C 281.675 383.602,282.275 383.344,283.978 383.588 C 284.479 383.660,284.480 383.571,283.992 382.936 C 283.681 382.531,283.570 382.320,283.746 382.466 C 283.922 382.612,284.688 382.472,285.450 382.153 C 286.212 381.835,287.007 381.681,287.218 381.811 C 287.428 381.941,287.600 381.857,287.600 381.624 C 287.600 381.391,287.390 381.200,287.133 381.200 C 286.877 381.200,286.801 381.065,286.966 380.901 C 287.131 380.736,287.539 380.961,287.874 381.401 C 288.471 382.184,288.478 382.182,288.214 381.300 C 287.954 380.428,288.939 380.051,290.600 380.386 C 290.820 380.430,290.874 380.340,290.719 380.186 C 290.221 379.688,291.507 378.800,292.725 378.800 C 293.570 378.800,293.966 378.572,294.116 378.000 C 294.282 377.364,294.662 377.200,295.963 377.200 C 297.333 377.200,297.600 377.070,297.600 376.400 C 297.600 375.733,297.867 375.600,299.200 375.600 C 300.382 375.600,300.800 375.437,300.800 374.976 C 300.800 374.633,300.632 374.456,300.428 374.583 C 300.223 374.709,299.950 374.643,299.822 374.435 C 299.688 374.218,300.102 374.122,300.794 374.209 C 301.457 374.293,302.000 374.196,302.000 373.994 C 302.000 373.791,302.269 373.728,302.597 373.854 C 302.957 373.992,303.316 373.784,303.497 373.334 C 303.664 372.921,304.160 372.583,304.600 372.583 C 305.136 372.582,305.361 372.354,305.282 371.891 C 305.202 371.418,305.430 371.200,306.006 371.200 C 306.469 371.200,306.748 371.039,306.626 370.842 C 306.504 370.645,306.694 370.373,307.047 370.237 C 307.516 370.057,307.623 370.162,307.444 370.629 C 307.288 371.036,307.381 371.206,307.700 371.099 C 307.975 371.007,308.201 370.601,308.202 370.199 C 308.203 369.711,308.526 369.442,309.168 369.395 C 309.698 369.356,310.418 368.977,310.766 368.552 C 311.115 368.127,311.760 367.839,312.200 367.912 C 312.718 367.997,312.831 367.926,312.521 367.711 C 312.103 367.421,312.418 366.169,312.845 366.425 C 313.282 366.686,314.800 365.869,314.800 365.373 C 314.800 365.058,315.160 364.800,315.600 364.800 C 316.040 364.800,316.400 364.541,316.400 364.224 C 316.400 363.445,317.085 363.075,318.458 363.114 C 319.307 363.138,319.600 362.960,319.600 362.420 C 319.600 362.020,319.960 361.599,320.400 361.484 C 320.840 361.369,321.200 360.999,321.200 360.663 C 321.200 360.265,321.654 360.007,322.500 359.925 C 323.499 359.829,323.830 359.590,323.929 358.894 C 323.999 358.396,324.215 358.086,324.409 358.205 C 324.602 358.325,324.947 358.074,325.175 357.647 C 325.467 357.101,325.857 356.938,326.495 357.095 C 326.993 357.218,327.266 357.173,327.102 356.995 C 326.939 356.817,327.201 356.474,327.685 356.233 C 328.169 355.991,328.690 355.345,328.843 354.797 C 328.995 354.249,329.138 354.006,329.160 354.257 C 329.182 354.509,329.490 354.826,329.845 354.962 C 330.297 355.135,330.423 355.036,330.267 354.629 C 330.120 354.248,330.345 354.007,330.922 353.925 C 331.405 353.856,331.804 353.620,331.809 353.400 C 331.825 352.726,333.852 350.800,334.546 350.800 C 335.116 350.800,335.430 349.859,335.247 348.700 C 335.221 348.535,335.335 348.421,335.500 348.447 C 336.316 348.576,336.800 348.344,336.800 347.824 C 336.800 347.507,337.008 347.119,337.262 346.962 C 337.548 346.785,337.615 346.852,337.438 347.138 C 337.271 347.409,337.401 347.600,337.753 347.600 C 338.139 347.600,338.299 347.313,338.200 346.800 C 338.056 346.054,338.442 345.793,339.400 345.986 C 339.620 346.030,339.674 345.940,339.519 345.786 C 339.190 345.457,340.146 344.400,340.771 344.400 C 341.007 344.400,341.200 344.040,341.200 343.600 C 341.200 343.067,341.467 342.800,342.000 342.800 C 342.533 342.800,342.800 342.533,342.800 342.000 C 342.800 341.467,343.067 341.200,343.600 341.200 C 344.040 341.200,344.400 341.007,344.400 340.771 C 344.400 340.146,345.457 339.190,345.786 339.519 C 345.940 339.674,346.030 339.620,345.986 339.400 C 345.793 338.442,346.054 338.056,346.800 338.200 C 347.313 338.299,347.600 338.139,347.600 337.753 C 347.600 337.401,347.409 337.271,347.138 337.438 C 346.852 337.615,346.785 337.548,346.962 337.262 C 347.119 337.008,347.507 336.800,347.824 336.800 C 348.344 336.800,348.576 336.316,348.447 335.500 C 348.421 335.335,348.535 335.221,348.700 335.247 C 349.859 335.430,350.800 335.116,350.800 334.546 C 350.800 333.852,352.726 331.825,353.400 331.809 C 353.620 331.804,353.856 331.405,353.925 330.922 C 354.007 330.345,354.248 330.120,354.629 330.267 C 355.036 330.423,355.135 330.297,354.962 329.845 C 354.826 329.490,354.509 329.182,354.257 329.160 C 354.006 329.138,354.249 328.995,354.797 328.843 C 355.345 328.690,355.991 328.169,356.233 327.685 C 356.474 327.201,356.817 326.939,356.995 327.102 C 357.173 327.266,357.218 326.993,357.095 326.495 C 356.938 325.857,357.101 325.467,357.647 325.175 C 358.074 324.947,358.325 324.602,358.205 324.409 C 358.086 324.215,358.396 323.999,358.894 323.929 C 359.583 323.831,359.829 323.499,359.922 322.541 C 360.005 321.693,360.299 321.215,360.822 321.078 C 361.250 320.966,361.600 320.588,361.600 320.237 C 361.600 319.874,361.932 319.600,362.373 319.600 C 362.965 319.600,363.139 319.331,363.114 318.458 C 363.075 317.085,363.445 316.400,364.224 316.400 C 364.541 316.400,364.800 316.040,364.800 315.600 C 364.800 315.160,365.058 314.800,365.373 314.800 C 365.869 314.800,366.686 313.282,366.425 312.845 C 366.169 312.418,367.421 312.103,367.711 312.521 C 367.926 312.831,367.997 312.718,367.912 312.200 C 367.839 311.760,368.127 311.115,368.552 310.766 C 368.977 310.418,369.356 309.698,369.395 309.168 C 369.442 308.526,369.711 308.203,370.199 308.202 C 370.601 308.201,371.007 307.975,371.099 307.700 C 371.206 307.381,371.036 307.288,370.629 307.444 C 370.162 307.623,370.057 307.516,370.237 307.047 C 370.373 306.694,370.645 306.504,370.842 306.626 C 371.039 306.748,371.200 306.469,371.200 306.006 C 371.200 305.430,371.418 305.202,371.891 305.282 C 372.354 305.361,372.582 305.136,372.583 304.600 C 372.583 304.160,372.921 303.664,373.334 303.497 C 373.784 303.316,373.992 302.957,373.854 302.597 C 373.728 302.269,373.791 302.000,373.994 302.000 C 374.196 302.000,374.293 301.457,374.209 300.794 C 374.122 300.102,374.218 299.688,374.435 299.822 C 374.643 299.950,374.709 300.223,374.583 300.428 C 374.456 300.632,374.633 300.800,374.976 300.800 C 375.437 300.800,375.600 300.382,375.600 299.200 C 375.600 297.867,375.733 297.600,376.400 297.600 C 377.070 297.600,377.200 297.333,377.200 295.963 C 377.200 294.662,377.364 294.282,378.000 294.116 C 378.572 293.966,378.800 293.570,378.800 292.725 C 378.800 291.507,379.688 290.221,380.186 290.719 C 380.340 290.874,380.430 290.820,380.386 290.600 C 380.051 288.939,380.428 287.954,381.300 288.214 C 382.182 288.478,382.184 288.471,381.401 287.874 C 380.961 287.539,380.736 287.131,380.901 286.966 C 381.065 286.801,381.200 286.877,381.200 287.133 C 381.200 287.390,381.391 287.600,381.624 287.600 C 381.857 287.600,381.941 287.428,381.811 287.218 C 381.681 287.007,381.835 286.212,382.153 285.450 C 382.472 284.688,382.612 283.922,382.466 283.746 C 382.320 283.570,382.531 283.681,382.936 283.992 C 383.571 284.480,383.660 284.479,383.588 283.978 C 383.344 282.275,383.602 281.675,384.500 281.865 C 385.300 282.034,385.321 282.005,384.692 281.603 C 383.841 281.060,384.792 278.983,386.078 278.575 C 386.466 278.452,386.766 278.227,386.745 278.076 C 386.433 275.886,386.871 273.996,387.700 273.954 C 388.385 273.918,388.432 273.863,387.895 273.723 C 387.507 273.622,387.295 273.370,387.423 273.163 C 387.551 272.956,387.823 272.891,388.028 273.017 C 388.232 273.144,388.400 272.607,388.400 271.824 C 388.400 271.041,388.580 270.400,388.800 270.400 C 389.020 270.400,389.200 270.209,389.200 269.976 C 389.200 269.743,388.997 269.678,388.748 269.832 C 388.472 270.002,388.372 269.895,388.491 269.556 C 388.598 269.250,388.990 269.026,389.361 269.059 C 389.767 269.094,390.011 268.854,389.972 268.459 C 389.818 266.874,390.021 266.033,390.514 266.222 C 391.060 266.432,391.062 266.421,391.250 262.524 C 391.346 260.544,391.513 260.012,392.085 259.862 C 392.665 259.710,392.800 259.249,392.800 257.420 C 392.800 255.521,392.907 255.183,393.478 255.282 C 394.037 255.380,394.180 254.997,394.296 253.081 C 394.396 251.452,394.670 250.530,395.219 249.981 C 396.257 248.943,396.325 247.650,395.300 248.444 C 394.638 248.957,394.637 248.942,395.277 248.187 C 395.704 247.683,396.000 246.513,396.077 245.025 C 396.196 242.732,396.932 241.580,397.320 243.078 C 397.468 243.648,397.517 243.611,397.554 242.900 C 397.579 242.405,397.375 241.997,397.100 241.994 C 396.715 241.989,396.711 241.917,397.082 241.681 C 397.393 241.484,397.589 240.065,397.632 237.696 C 397.676 235.264,397.886 233.777,398.252 233.309 C 398.743 232.678,398.762 232.720,398.418 233.686 C 398.193 234.316,398.181 234.864,398.388 234.992 C 398.964 235.349,399.048 234.834,399.164 230.200 C 399.226 227.780,399.438 225.740,399.638 225.667 C 400.183 225.466,400.073 223.696,399.500 223.465 C 399.100 223.304,399.100 223.257,399.500 223.232 C 399.894 223.207,400.000 218.356,400.000 200.400 C 400.000 182.430,399.894 177.599,399.500 177.594 C 399.134 177.589,399.146 177.495,399.545 177.242 C 400.006 176.951,400.006 176.863,399.545 176.679 C 399.098 176.500,399.108 176.385,399.600 176.037 C 400.133 175.659,400.133 175.611,399.600 175.600 C 399.067 175.589,399.067 175.541,399.600 175.163 C 400.052 174.844,400.076 174.689,399.700 174.536 C 399.352 174.395,399.200 173.238,399.200 170.731 C 399.200 167.484,399.111 167.054,398.300 166.377 C 397.567 165.766,397.524 165.624,398.067 165.613 C 398.433 165.606,398.835 165.825,398.960 166.100 C 399.084 166.375,399.142 166.240,399.087 165.800 C 399.033 165.360,398.722 165.000,398.395 165.000 C 397.942 165.000,397.746 164.285,397.572 162.000 C 397.447 160.350,397.312 159.222,397.272 159.494 C 396.999 161.362,320.905 86.301,319.404 82.683 C 319.058 81.848,318.510 81.064,318.187 80.940 C 317.864 80.816,317.600 80.476,317.600 80.184 C 317.600 79.893,317.195 79.527,316.700 79.372 C 316.205 79.217,315.371 78.755,314.846 78.345 C 313.957 77.650,91.598 77.200,87.129 77.884 M314.356 78.881 C 317.293 80.286,318.327 81.467,319.210 84.433 C 320.188 87.718,320.255 221.010,319.280 224.981 C 318.678 227.433,317.244 228.994,314.450 230.241 L 312.300 231.200 289.583 231.200 C 277.088 231.200,266.581 231.309,266.233 231.443 C 265.684 231.653,265.600 232.773,265.600 239.843 L 265.600 248.000 269.177 248.000 C 273.881 248.000,274.000 248.153,274.000 254.209 C 274.000 257.122,273.836 258.804,273.520 259.120 C 272.822 259.818,127.578 259.818,126.880 259.120 C 126.375 258.615,126.200 251.388,126.652 249.700 C 126.876 248.864,127.116 248.800,130.021 248.800 C 131.741 248.800,133.610 248.624,134.174 248.410 L 135.200 248.020 135.200 239.941 C 135.200 232.986,135.108 231.761,134.538 231.131 C 133.912 230.440,132.626 230.398,110.838 230.368 C 84.549 230.331,85.112 230.389,82.639 227.459 L 81.000 225.519 81.000 154.622 L 81.000 83.726 82.494 81.903 C 85.557 78.166,74.417 78.409,256.356 78.097 L 312.512 78.000 314.356 78.881 M26.602 96.798 C 26.203 97.239,26.062 97.600,26.289 97.600 C 26.792 97.600,27.790 96.457,27.521 96.188 C 27.415 96.082,27.002 96.356,26.602 96.798 M372.400 96.289 C 372.400 96.792,373.543 97.790,373.812 97.521 C 373.918 97.415,373.644 97.002,373.202 96.602 C 372.761 96.203,372.400 96.062,372.400 96.289 M321.717 270.365 L 323.600 272.130 323.600 299.960 L 323.600 327.791 321.720 329.492 C 320.636 330.474,319.266 331.301,318.483 331.448 C 314.460 332.203,81.416 331.005,79.894 330.221 C 76.634 328.543,76.800 330.171,76.800 299.924 C 76.800 269.885,76.648 271.476,79.674 269.917 C 81.281 269.089,158.405 268.512,260.017 268.567 L 319.834 268.600 321.717 270.365 M26.602 303.202 C 27.002 303.644,27.415 303.918,27.521 303.812 C 27.790 303.543,26.792 302.400,26.289 302.400 C 26.062 302.400,26.203 302.761,26.602 303.202 M96.602 373.202 C 97.002 373.644,97.415 373.918,97.521 373.812 C 97.790 373.543,96.792 372.400,96.289 372.400 C 96.062 372.400,96.203 372.761,96.602 373.202 M155.632 396.713 C 155.596 397.288,156.695 397.838,157.091 397.443 C 157.231 397.302,157.107 396.965,156.815 396.693 C 156.392 396.302,156.341 396.303,156.565 396.700 C 156.720 396.975,156.672 397.200,156.457 397.200 C 156.242 397.200,155.976 396.975,155.865 396.700 C 155.707 396.308,155.656 396.311,155.632 396.713 " stroke="none" fill="#3bc2da" fill-rule="evenodd"></path><path id="path3" d="M175.533 0.369 C 175.460 0.573,173.330 0.782,170.800 0.835 C 165.680 0.943,165.060 1.059,165.364 1.852 C 165.534 2.293,164.809 2.400,161.641 2.400 C 158.314 2.400,157.551 2.523,156.691 3.200 C 155.951 3.782,155.068 4.000,153.451 4.000 C 151.638 4.000,151.149 4.147,150.800 4.800 C 150.441 5.471,149.962 5.600,147.835 5.600 C 145.764 5.600,145.197 5.745,144.749 6.387 C 144.315 7.010,143.678 7.191,141.700 7.253 C 140.325 7.296,139.200 7.492,139.200 7.689 C 139.200 7.886,139.020 7.936,138.800 7.800 C 138.580 7.664,138.400 7.833,138.400 8.176 C 138.400 8.610,138.014 8.800,137.131 8.800 C 136.434 8.800,135.492 9.115,135.038 9.500 C 134.251 10.168,134.239 10.168,134.763 9.491 C 135.244 8.871,135.230 8.814,134.657 9.034 C 134.295 9.172,134.000 9.426,134.000 9.597 C 134.000 9.769,133.190 10.031,132.200 10.179 C 131.026 10.355,130.400 10.649,130.400 11.025 C 130.400 11.341,129.995 11.627,129.500 11.659 C 129.005 11.692,128.330 11.755,128.000 11.800 C 127.670 11.845,127.085 11.908,126.700 11.941 C 126.315 11.973,126.000 12.245,126.000 12.544 C 126.000 12.903,125.283 13.173,123.900 13.337 C 122.735 13.475,121.602 13.856,121.356 14.193 C 121.112 14.527,120.541 14.800,120.089 14.800 C 118.844 14.800,118.000 15.221,118.000 15.843 C 118.000 16.364,116.978 16.606,115.600 16.409 C 115.270 16.362,115.133 16.459,115.297 16.625 C 115.848 17.185,114.711 18.000,113.378 18.000 C 112.405 18.000,111.987 18.212,111.800 18.800 C 111.577 19.502,110.440 19.859,109.100 19.647 C 108.935 19.621,108.800 19.960,108.800 20.400 C 108.800 21.067,108.533 21.200,107.200 21.200 C 105.867 21.200,105.600 21.333,105.600 22.000 C 105.600 22.667,105.333 22.800,104.000 22.800 C 102.667 22.800,102.400 22.933,102.400 23.600 C 102.400 24.245,102.133 24.400,101.027 24.400 C 100.005 24.400,99.589 24.605,99.400 25.200 C 99.260 25.640,98.842 26.000,98.469 26.000 C 98.097 26.000,97.568 26.360,97.293 26.800 C 97.018 27.240,96.364 27.600,95.839 27.600 C 95.315 27.600,94.788 27.853,94.670 28.162 C 94.551 28.472,93.917 28.843,93.260 28.987 C 92.604 29.131,91.967 29.508,91.846 29.824 C 91.724 30.141,91.259 30.400,90.813 30.400 C 90.267 30.400,90.000 30.663,90.000 31.200 C 90.000 31.963,89.231 32.235,87.669 32.023 C 87.377 31.983,87.041 32.322,86.922 32.775 C 86.801 33.240,86.378 33.600,85.953 33.600 C 85.504 33.600,85.199 33.882,85.197 34.300 C 85.195 34.685,84.745 35.208,84.196 35.463 C 83.648 35.717,83.299 35.764,83.420 35.567 C 83.542 35.370,83.362 35.316,83.021 35.447 C 82.679 35.578,82.400 35.936,82.400 36.243 C 82.400 36.756,81.893 36.981,81.066 36.836 C 80.882 36.804,80.636 37.142,80.519 37.589 C 80.402 38.035,80.041 38.400,79.716 38.400 C 79.391 38.400,79.034 38.750,78.922 39.178 C 78.785 39.701,78.307 39.995,77.459 40.078 C 76.546 40.166,76.215 40.392,76.256 40.900 C 76.294 41.387,76.020 41.600,75.356 41.600 C 74.793 41.600,74.400 41.836,74.400 42.173 C 74.400 42.488,74.040 42.860,73.600 43.000 C 73.160 43.140,72.800 43.512,72.800 43.827 C 72.800 44.142,72.485 44.406,72.100 44.413 C 71.281 44.428,69.910 45.377,70.236 45.703 C 70.360 45.826,70.081 46.047,69.617 46.195 C 68.660 46.498,66.565 48.446,66.706 48.900 C 66.758 49.065,66.570 49.200,66.288 49.200 C 66.007 49.200,65.517 49.560,65.200 50.000 C 64.883 50.440,64.405 50.800,64.139 50.800 C 63.872 50.800,63.540 51.160,63.400 51.600 C 63.260 52.040,62.888 52.400,62.573 52.400 C 62.258 52.400,62.000 52.548,62.000 52.728 C 62.000 53.259,59.770 55.600,59.264 55.600 C 59.009 55.600,58.800 55.960,58.800 56.400 C 58.800 56.933,58.533 57.200,58.000 57.200 C 57.467 57.200,57.200 57.467,57.200 58.000 C 57.200 58.533,56.933 58.800,56.400 58.800 C 55.960 58.800,55.600 59.009,55.600 59.264 C 55.600 59.770,53.259 62.000,52.728 62.000 C 52.548 62.000,52.400 62.258,52.400 62.573 C 52.400 62.888,52.040 63.260,51.600 63.400 C 51.160 63.540,50.800 63.872,50.800 64.139 C 50.800 64.405,50.440 64.883,50.000 65.200 C 49.560 65.517,49.200 66.007,49.200 66.288 C 49.200 66.570,49.065 66.758,48.900 66.706 C 48.446 66.565,46.498 68.660,46.195 69.617 C 46.047 70.081,45.826 70.360,45.703 70.236 C 45.377 69.910,44.428 71.281,44.413 72.100 C 44.406 72.485,44.142 72.800,43.827 72.800 C 43.512 72.800,43.140 73.160,43.000 73.600 C 42.860 74.040,42.488 74.400,42.173 74.400 C 41.836 74.400,41.600 74.793,41.600 75.356 C 41.600 76.020,41.387 76.294,40.900 76.256 C 40.392 76.215,40.166 76.546,40.078 77.459 C 39.995 78.307,39.701 78.785,39.178 78.922 C 38.750 79.034,38.400 79.391,38.400 79.716 C 38.400 80.041,38.035 80.402,37.589 80.519 C 37.142 80.636,36.804 80.882,36.836 81.066 C 36.981 81.893,36.756 82.400,36.243 82.400 C 35.936 82.400,35.578 82.679,35.447 83.021 C 35.316 83.362,35.370 83.542,35.567 83.420 C 35.764 83.299,35.717 83.648,35.463 84.196 C 35.208 84.745,34.685 85.195,34.300 85.197 C 33.882 85.199,33.600 85.504,33.600 85.953 C 33.600 86.378,33.240 86.801,32.775 86.922 C 32.322 87.041,31.983 87.377,32.023 87.669 C 32.235 89.231,31.963 90.000,31.200 90.000 C 30.663 90.000,30.400 90.267,30.400 90.813 C 30.400 91.259,30.141 91.724,29.824 91.846 C 29.508 91.967,29.131 92.604,28.987 93.260 C 28.843 93.917,28.472 94.551,28.162 94.670 C 27.853 94.788,27.600 95.315,27.600 95.839 C 27.600 96.364,27.240 97.018,26.800 97.293 C 26.360 97.568,26.000 98.097,26.000 98.469 C 26.000 98.842,25.640 99.260,25.200 99.400 C 24.605 99.589,24.400 100.005,24.400 101.027 C 24.400 102.133,24.245 102.400,23.600 102.400 C 22.933 102.400,22.800 102.667,22.800 104.000 C 22.800 105.333,22.667 105.600,22.000 105.600 C 21.333 105.600,21.200 105.867,21.200 107.200 C 21.200 108.533,21.067 108.800,20.400 108.800 C 19.960 108.800,19.621 108.935,19.647 109.100 C 19.859 110.440,19.502 111.577,18.800 111.800 C 18.212 111.987,18.000 112.405,18.000 113.378 C 18.000 114.711,17.185 115.848,16.625 115.297 C 16.459 115.133,16.362 115.270,16.409 115.600 C 16.606 116.978,16.364 118.000,15.843 118.000 C 15.221 118.000,14.800 118.844,14.800 120.089 C 14.800 120.541,14.527 121.112,14.193 121.356 C 13.856 121.602,13.475 122.735,13.337 123.900 C 13.173 125.283,12.903 126.000,12.544 126.000 C 12.245 126.000,11.973 126.315,11.941 126.700 C 11.908 127.085,11.845 127.670,11.800 128.000 C 11.755 128.330,11.692 129.005,11.659 129.500 C 11.627 129.995,11.341 130.400,11.025 130.400 C 10.649 130.400,10.355 131.026,10.179 132.200 C 10.031 133.190,9.769 134.000,9.597 134.000 C 9.426 134.000,9.172 134.295,9.034 134.657 C 8.814 135.230,8.871 135.244,9.491 134.763 C 10.168 134.239,10.168 134.251,9.500 135.038 C 9.115 135.492,8.800 136.434,8.800 137.131 C 8.800 138.014,8.610 138.400,8.176 138.400 C 7.833 138.400,7.664 138.580,7.800 138.800 C 7.936 139.020,7.886 139.200,7.689 139.200 C 7.492 139.200,7.296 140.325,7.253 141.700 C 7.191 143.678,7.010 144.315,6.387 144.749 C 5.745 145.197,5.600 145.764,5.600 147.835 C 5.600 149.962,5.471 150.441,4.800 150.800 C 4.147 151.149,4.000 151.638,4.000 153.451 C 4.000 155.068,3.782 155.951,3.200 156.691 C 2.523 157.551,2.400 158.314,2.400 161.641 C 2.400 164.809,2.293 165.534,1.852 165.364 C 1.059 165.060,0.943 165.680,0.835 170.800 C 0.782 173.330,0.573 175.460,0.369 175.533 C -0.126 175.712,-0.126 224.288,0.369 224.467 C 0.573 224.540,0.782 226.670,0.835 229.200 C 0.943 234.320,1.059 234.940,1.852 234.636 C 2.293 234.466,2.400 235.191,2.400 238.359 C 2.400 241.686,2.523 242.449,3.200 243.309 C 3.782 244.049,4.000 244.932,4.000 246.549 C 4.000 248.362,4.147 248.851,4.800 249.200 C 5.471 249.559,5.600 250.038,5.600 252.165 C 5.600 254.236,5.745 254.803,6.387 255.251 C 7.010 255.685,7.191 256.322,7.253 258.300 C 7.296 259.675,7.492 260.800,7.689 260.800 C 7.886 260.800,7.936 260.980,7.800 261.200 C 7.664 261.420,7.833 261.600,8.176 261.600 C 8.610 261.600,8.800 261.986,8.800 262.869 C 8.800 263.566,9.115 264.508,9.500 264.962 C 10.168 265.749,10.168 265.761,9.491 265.237 C 8.871 264.756,8.814 264.770,9.034 265.343 C 9.172 265.705,9.426 266.000,9.597 266.000 C 9.769 266.000,10.031 266.810,10.179 267.800 C 10.355 268.974,10.649 269.600,11.025 269.600 C 11.341 269.600,11.627 270.005,11.659 270.500 C 11.692 270.995,11.755 271.670,11.800 272.000 C 11.845 272.330,11.908 272.915,11.941 273.300 C 11.973 273.685,12.245 274.000,12.544 274.000 C 12.903 274.000,13.173 274.717,13.337 276.100 C 13.475 277.265,13.856 278.398,14.193 278.644 C 14.527 278.888,14.800 279.459,14.800 279.911 C 14.800 281.156,15.221 282.000,15.843 282.000 C 16.364 282.000,16.606 283.022,16.409 284.400 C 16.362 284.730,16.459 284.867,16.625 284.703 C 17.185 284.152,18.000 285.289,18.000 286.622 C 18.000 287.595,18.212 288.013,18.800 288.200 C 19.502 288.423,19.859 289.560,19.647 290.900 C 19.621 291.065,19.960 291.200,20.400 291.200 C 21.067 291.200,21.200 291.467,21.200 292.800 C 21.200 294.133,21.333 294.400,22.000 294.400 C 22.667 294.400,22.800 294.667,22.800 296.000 C 22.800 297.333,22.933 297.600,23.600 297.600 C 24.245 297.600,24.400 297.867,24.400 298.973 C 24.400 299.995,24.605 300.411,25.200 300.600 C 25.640 300.740,26.000 301.158,26.000 301.531 C 26.000 301.903,26.360 302.432,26.800 302.707 C 27.240 302.982,27.600 303.636,27.600 304.161 C 27.600 304.685,27.853 305.212,28.162 305.330 C 28.472 305.449,28.843 306.083,28.987 306.740 C 29.131 307.396,29.508 308.033,29.824 308.154 C 30.141 308.276,30.400 308.741,30.400 309.187 C 30.400 309.733,30.663 310.000,31.200 310.000 C 31.963 310.000,32.235 310.769,32.023 312.331 C 31.983 312.623,32.322 312.959,32.775 313.078 C 33.240 313.199,33.600 313.622,33.600 314.047 C 33.600 314.496,33.882 314.801,34.300 314.803 C 34.685 314.805,35.208 315.255,35.463 315.804 C 35.717 316.352,35.764 316.701,35.567 316.580 C 35.370 316.458,35.316 316.638,35.447 316.979 C 35.578 317.321,35.936 317.600,36.243 317.600 C 36.756 317.600,36.981 318.107,36.836 318.934 C 36.804 319.118,37.142 319.364,37.589 319.481 C 38.035 319.598,38.400 319.959,38.400 320.284 C 38.400 320.609,38.750 320.966,39.178 321.078 C 39.701 321.215,39.995 321.693,40.078 322.541 C 40.166 323.454,40.392 323.785,40.900 323.744 C 41.387 323.706,41.600 323.980,41.600 324.644 C 41.600 325.207,41.836 325.600,42.173 325.600 C 42.488 325.600,42.860 325.960,43.000 326.400 C 43.140 326.840,43.512 327.200,43.827 327.200 C 44.142 327.200,44.406 327.515,44.413 327.900 C 44.428 328.719,45.377 330.090,45.703 329.764 C 45.826 329.640,46.049 329.925,46.199 330.397 C 46.349 330.868,47.445 332.228,48.635 333.418 C 49.826 334.609,50.800 335.754,50.800 335.964 C 50.800 336.174,51.160 336.460,51.600 336.600 C 52.040 336.740,52.400 337.112,52.400 337.427 C 52.400 337.742,52.548 338.000,52.728 338.000 C 53.259 338.000,55.600 340.230,55.600 340.736 C 55.600 340.991,55.960 341.200,56.400 341.200 C 56.933 341.200,57.200 341.467,57.200 342.000 C 57.200 342.533,57.467 342.800,58.000 342.800 C 58.533 342.800,58.800 343.067,58.800 343.600 C 58.800 344.040,59.009 344.400,59.264 344.400 C 59.770 344.400,62.000 346.741,62.000 347.272 C 62.000 347.452,62.258 347.600,62.573 347.600 C 62.888 347.600,63.260 347.960,63.400 348.400 C 63.540 348.840,63.826 349.200,64.036 349.200 C 64.246 349.200,65.391 350.174,66.582 351.365 C 67.772 352.555,69.132 353.651,69.603 353.801 C 70.075 353.951,70.360 354.174,70.236 354.297 C 69.910 354.623,71.281 355.572,72.100 355.587 C 72.485 355.594,72.800 355.858,72.800 356.173 C 72.800 356.488,73.160 356.860,73.600 357.000 C 74.040 357.140,74.400 357.512,74.400 357.827 C 74.400 358.164,74.793 358.400,75.356 358.400 C 76.020 358.400,76.294 358.613,76.256 359.100 C 76.215 359.612,76.549 359.834,77.500 359.925 C 78.346 360.007,78.800 360.265,78.800 360.663 C 78.800 360.999,79.143 361.365,79.563 361.474 C 79.983 361.584,80.417 362.022,80.529 362.448 C 80.640 362.874,80.882 363.196,81.066 363.164 C 81.893 363.019,82.400 363.244,82.400 363.757 C 82.400 364.064,82.679 364.422,83.021 364.553 C 83.362 364.684,83.542 364.630,83.420 364.433 C 83.299 364.236,83.648 364.283,84.196 364.537 C 84.745 364.792,85.195 365.315,85.197 365.700 C 85.199 366.118,85.504 366.400,85.953 366.400 C 86.378 366.400,86.801 366.760,86.922 367.225 C 87.041 367.678,87.377 368.017,87.669 367.977 C 89.231 367.765,90.000 368.037,90.000 368.800 C 90.000 369.337,90.267 369.600,90.813 369.600 C 91.259 369.600,91.724 369.859,91.846 370.176 C 91.967 370.492,92.604 370.869,93.260 371.013 C 93.917 371.157,94.551 371.528,94.670 371.838 C 94.788 372.147,95.315 372.400,95.839 372.400 C 96.364 372.400,97.018 372.760,97.293 373.200 C 97.568 373.640,98.097 374.000,98.469 374.000 C 98.842 374.000,99.260 374.360,99.400 374.800 C 99.589 375.395,100.005 375.600,101.027 375.600 C 102.133 375.600,102.400 375.755,102.400 376.400 C 102.400 377.067,102.667 377.200,104.000 377.200 C 105.333 377.200,105.600 377.333,105.600 378.000 C 105.600 378.667,105.867 378.800,107.200 378.800 C 108.533 378.800,108.800 378.933,108.800 379.600 C 108.800 380.040,108.935 380.379,109.100 380.353 C 110.440 380.141,111.577 380.498,111.800 381.200 C 111.987 381.788,112.405 382.000,113.378 382.000 C 114.711 382.000,115.848 382.815,115.297 383.375 C 115.133 383.541,115.270 383.638,115.600 383.591 C 116.978 383.394,118.000 383.636,118.000 384.157 C 118.000 384.779,118.844 385.200,120.089 385.200 C 120.541 385.200,121.112 385.473,121.356 385.807 C 121.602 386.144,122.735 386.525,123.900 386.663 C 125.283 386.827,126.000 387.097,126.000 387.456 C 126.000 387.755,126.315 388.027,126.700 388.059 C 127.085 388.092,127.670 388.155,128.000 388.200 C 128.330 388.245,129.005 388.308,129.500 388.341 C 129.995 388.373,130.400 388.659,130.400 388.975 C 130.400 389.351,131.026 389.645,132.200 389.821 C 133.190 389.969,134.000 390.231,134.000 390.403 C 134.000 390.574,134.295 390.828,134.657 390.966 C 135.230 391.186,135.244 391.129,134.763 390.509 C 134.239 389.832,134.251 389.832,135.038 390.500 C 135.492 390.885,136.434 391.200,137.131 391.200 C 138.014 391.200,138.400 391.390,138.400 391.824 C 138.400 392.167,138.580 392.336,138.800 392.200 C 139.020 392.064,139.200 392.107,139.200 392.295 C 139.200 392.483,139.830 392.679,140.600 392.731 C 144.124 392.968,145.317 394.286,109.308 358.177 C 82.731 331.526,82.809 331.600,81.175 331.600 C 80.478 331.600,79.470 330.979,78.164 329.745 L 76.200 327.891 76.092 300.148 C 75.985 272.742,75.994 272.397,76.792 271.714 C 77.236 271.334,77.608 270.837,77.617 270.611 C 77.626 270.385,78.269 269.795,79.045 269.300 L 80.455 268.400 107.128 268.394 C 121.797 268.391,134.029 268.243,134.308 268.065 C 134.666 267.838,133.508 266.467,130.408 263.444 L 126.000 259.145 126.000 254.053 C 126.000 247.861,125.897 248.000,130.480 248.000 L 134.000 248.000 134.000 239.812 L 134.000 231.624 110.500 231.512 C 89.000 231.410,86.898 231.341,85.800 230.702 C 85.140 230.319,84.387 230.004,84.127 230.002 C 83.375 229.999,80.922 226.720,80.683 225.400 C 80.564 224.740,80.275 223.480,80.042 222.600 C 79.135 219.171,79.486 88.298,80.412 84.816 C 81.220 81.779,83.027 79.200,84.347 79.200 C 84.671 79.200,85.285 78.885,85.710 78.500 C 86.960 77.369,313.278 77.211,314.805 78.340 C 315.361 78.751,316.217 79.215,316.708 79.371 C 317.198 79.526,317.600 79.893,317.600 80.184 C 317.600 80.476,317.864 80.816,318.187 80.940 C 318.510 81.064,319.058 81.848,319.404 82.683 C 320.186 84.567,393.402 158.001,395.695 159.200 L 397.189 159.982 397.446 158.959 C 397.626 158.242,397.448 157.591,396.851 156.784 C 396.225 155.937,396.000 155.049,396.000 153.430 C 396.000 151.638,395.851 151.149,395.200 150.800 C 394.529 150.441,394.400 149.962,394.400 147.835 C 394.400 145.764,394.255 145.197,393.613 144.749 C 392.990 144.315,392.809 143.678,392.747 141.700 C 392.704 140.325,392.508 139.200,392.311 139.200 C 392.114 139.200,392.064 139.020,392.200 138.800 C 392.336 138.580,392.167 138.400,391.824 138.400 C 391.390 138.400,391.200 138.014,391.200 137.131 C 391.200 136.434,390.885 135.492,390.500 135.038 C 389.832 134.251,389.832 134.239,390.509 134.763 C 391.129 135.244,391.186 135.230,390.966 134.657 C 390.828 134.295,390.574 134.000,390.403 134.000 C 390.231 134.000,389.969 133.190,389.821 132.200 C 389.645 131.026,389.351 130.400,388.975 130.400 C 388.659 130.400,388.373 129.995,388.341 129.500 C 388.308 129.005,388.245 128.330,388.200 128.000 C 388.155 127.670,388.092 127.085,388.059 126.700 C 388.027 126.315,387.755 126.000,387.456 126.000 C 387.097 126.000,386.827 125.283,386.663 123.900 C 386.525 122.735,386.144 121.602,385.807 121.356 C 385.473 121.112,385.200 120.541,385.200 120.089 C 385.200 118.844,384.779 118.000,384.157 118.000 C 383.636 118.000,383.394 116.978,383.591 115.600 C 383.638 115.270,383.541 115.133,383.375 115.297 C 382.815 115.848,382.000 114.711,382.000 113.378 C 382.000 112.405,381.788 111.987,381.200 111.800 C 380.498 111.577,380.141 110.440,380.353 109.100 C 380.379 108.935,380.040 108.800,379.600 108.800 C 378.933 108.800,378.800 108.533,378.800 107.200 C 378.800 105.867,378.667 105.600,378.000 105.600 C 377.333 105.600,377.200 105.333,377.200 104.000 C 377.200 102.667,377.067 102.400,376.400 102.400 C 375.755 102.400,375.600 102.133,375.600 101.027 C 375.600 100.005,375.395 99.589,374.800 99.400 C 374.360 99.260,374.000 98.842,374.000 98.469 C 374.000 98.097,373.640 97.568,373.200 97.293 C 372.760 97.018,372.400 96.364,372.400 95.839 C 372.400 95.315,372.147 94.788,371.838 94.670 C 371.528 94.551,371.157 93.917,371.013 93.260 C 370.869 92.604,370.492 91.967,370.176 91.846 C 369.859 91.724,369.600 91.259,369.600 90.813 C 369.600 90.267,369.337 90.000,368.800 90.000 C 368.037 90.000,367.765 89.231,367.977 87.669 C 368.017 87.377,367.678 87.041,367.225 86.922 C 366.760 86.801,366.400 86.378,366.400 85.953 C 366.400 85.504,366.118 85.199,365.700 85.197 C 365.315 85.195,364.792 84.745,364.537 84.196 C 364.283 83.648,364.236 83.299,364.433 83.420 C 364.630 83.542,364.684 83.362,364.553 83.021 C 364.422 82.679,364.064 82.400,363.757 82.400 C 363.244 82.400,363.019 81.893,363.164 81.066 C 363.196 80.882,362.874 80.640,362.448 80.529 C 362.022 80.417,361.584 79.983,361.474 79.563 C 361.365 79.143,360.999 78.800,360.663 78.800 C 360.265 78.800,360.007 78.346,359.925 77.500 C 359.834 76.549,359.612 76.215,359.100 76.256 C 358.613 76.294,358.400 76.020,358.400 75.356 C 358.400 74.793,358.164 74.400,357.827 74.400 C 357.512 74.400,357.140 74.040,357.000 73.600 C 356.860 73.160,356.488 72.800,356.173 72.800 C 355.858 72.800,355.594 72.485,355.587 72.100 C 355.572 71.281,354.623 69.910,354.297 70.236 C 354.174 70.360,353.951 70.075,353.801 69.603 C 353.651 69.132,352.555 67.772,351.365 66.582 C 350.174 65.391,349.200 64.246,349.200 64.036 C 349.200 63.826,348.840 63.540,348.400 63.400 C 347.960 63.260,347.600 62.888,347.600 62.573 C 347.600 62.258,347.452 62.000,347.272 62.000 C 346.741 62.000,344.400 59.770,344.400 59.264 C 344.400 59.009,344.040 58.800,343.600 58.800 C 343.067 58.800,342.800 58.533,342.800 58.000 C 342.800 57.467,342.533 57.200,342.000 57.200 C 341.467 57.200,341.200 56.933,341.200 56.400 C 341.200 55.960,340.991 55.600,340.736 55.600 C 340.230 55.600,338.000 53.259,338.000 52.728 C 338.000 52.548,337.742 52.400,337.427 52.400 C 337.112 52.400,336.740 52.040,336.600 51.600 C 336.460 51.160,336.174 50.800,335.964 50.800 C 335.754 50.800,334.609 49.826,333.418 48.635 C 332.228 47.445,330.868 46.349,330.397 46.199 C 329.925 46.049,329.640 45.826,329.764 45.703 C 330.090 45.377,328.719 44.428,327.900 44.413 C 327.515 44.406,327.200 44.142,327.200 43.827 C 327.200 43.512,326.840 43.140,326.400 43.000 C 325.960 42.860,325.600 42.488,325.600 42.173 C 325.600 41.836,325.207 41.600,324.644 41.600 C 323.980 41.600,323.706 41.387,323.744 40.900 C 323.785 40.388,323.451 40.166,322.500 40.075 C 321.654 39.993,321.200 39.735,321.200 39.337 C 321.200 39.001,320.857 38.635,320.437 38.526 C 320.017 38.416,319.583 37.978,319.471 37.552 C 319.360 37.126,319.118 36.804,318.934 36.836 C 318.107 36.981,317.600 36.756,317.600 36.243 C 317.600 35.936,317.321 35.578,316.979 35.447 C 316.638 35.316,316.458 35.370,316.580 35.567 C 316.701 35.764,316.352 35.717,315.804 35.463 C 315.255 35.208,314.805 34.685,314.803 34.300 C 314.801 33.882,314.496 33.600,314.047 33.600 C 313.622 33.600,313.199 33.240,313.078 32.775 C 312.959 32.322,312.623 31.983,312.331 32.023 C 310.769 32.235,310.000 31.963,310.000 31.200 C 310.000 30.663,309.733 30.400,309.187 30.400 C 308.741 30.400,308.276 30.141,308.154 29.824 C 308.033 29.508,307.396 29.131,306.740 28.987 C 306.083 28.843,305.449 28.472,305.330 28.162 C 305.212 27.853,304.685 27.600,304.161 27.600 C 303.636 27.600,302.982 27.240,302.707 26.800 C 302.432 26.360,301.903 26.000,301.531 26.000 C 301.158 26.000,300.740 25.640,300.600 25.200 C 300.411 24.605,299.995 24.400,298.973 24.400 C 297.867 24.400,297.600 24.245,297.600 23.600 C 297.600 22.933,297.333 22.800,296.000 22.800 C 294.667 22.800,294.400 22.667,294.400 22.000 C 294.400 21.333,294.133 21.200,292.800 21.200 C 291.467 21.200,291.200 21.067,291.200 20.400 C 291.200 19.960,291.065 19.621,290.900 19.647 C 289.560 19.859,288.423 19.502,288.200 18.800 C 288.013 18.212,287.595 18.000,286.622 18.000 C 285.289 18.000,284.152 17.185,284.703 16.625 C 284.867 16.459,284.730 16.362,284.400 16.409 C 283.022 16.606,282.000 16.364,282.000 15.843 C 282.000 15.221,281.156 14.800,279.911 14.800 C 279.459 14.800,278.888 14.527,278.644 14.193 C 278.398 13.856,277.265 13.475,276.100 13.337 C 274.717 13.173,274.000 12.903,274.000 12.544 C 274.000 12.245,273.685 11.973,273.300 11.941 C 272.915 11.908,272.330 11.845,272.000 11.800 C 271.670 11.755,270.995 11.692,270.500 11.659 C 270.005 11.627,269.600 11.341,269.600 11.025 C 269.600 10.649,268.974 10.355,267.800 10.179 C 266.810 10.031,266.000 9.769,266.000 9.597 C 266.000 9.426,265.705 9.172,265.343 9.034 C 264.770 8.814,264.756 8.871,265.237 9.491 C 265.761 10.168,265.749 10.168,264.962 9.500 C 264.508 9.115,263.566 8.800,262.869 8.800 C 261.986 8.800,261.600 8.610,261.600 8.176 C 261.600 7.833,261.420 7.664,261.200 7.800 C 260.980 7.936,260.800 7.886,260.800 7.689 C 260.800 7.492,259.675 7.296,258.300 7.253 C 256.322 7.191,255.685 7.010,255.251 6.387 C 254.803 5.745,254.236 5.600,252.165 5.600 C 250.038 5.600,249.559 5.471,249.200 4.800 C 248.851 4.147,248.362 4.000,246.549 4.000 C 244.932 4.000,244.049 3.782,243.309 3.200 C 242.449 2.523,241.686 2.400,238.359 2.400 C 235.191 2.400,234.466 2.293,234.636 1.852 C 234.940 1.059,234.320 0.943,229.200 0.835 C 226.670 0.782,224.540 0.573,224.467 0.369 C 224.288 -0.126,175.712 -0.126,175.533 0.369 M90.595 154.600 C 90.595 189.580,90.642 203.831,90.700 186.268 C 90.758 168.706,90.758 140.086,90.700 122.668 C 90.642 105.251,90.595 119.620,90.595 154.600 M398.000 166.200 C 398.274 166.530,398.650 166.800,398.836 166.800 C 399.023 166.800,399.071 166.530,398.945 166.200 C 398.818 165.870,398.442 165.600,398.108 165.600 C 397.615 165.600,397.595 165.712,398.000 166.200 M397.983 233.632 C 397.639 234.275,397.641 234.599,397.992 234.943 C 398.248 235.194,398.423 235.220,398.381 235.000 C 398.339 234.780,398.339 234.240,398.381 233.800 L 398.456 233.000 398.800 233.800 C 399.080 234.452,399.149 234.475,399.172 233.924 C 399.216 232.866,398.488 232.687,397.983 233.632 M396.138 243.017 C 396.008 243.357,396.001 243.735,396.124 243.857 C 396.474 244.208,397.200 243.613,397.200 242.976 C 397.200 242.209,396.437 242.238,396.138 243.017 M391.877 259.880 C 390.979 260.113,391.149 261.288,392.100 261.427 C 392.601 261.500,392.800 261.256,392.800 260.565 C 392.800 260.034,392.755 259.621,392.700 259.646 C 392.645 259.672,392.275 259.777,391.877 259.880 M389.812 264.781 C 389.669 265.011,389.818 265.200,390.143 265.200 C 390.468 265.200,390.824 265.425,390.935 265.700 C 391.062 266.014,391.149 266.032,391.168 265.749 C 391.217 265.055,390.124 264.275,389.812 264.781 M385.333 277.794 C 385.333 278.203,385.479 278.266,385.803 277.997 C 386.062 277.783,386.421 277.740,386.601 277.903 C 386.781 278.067,386.799 277.975,386.641 277.700 C 386.242 277.007,385.333 277.072,385.333 277.794 M384.428 280.347 C 384.208 280.758,384.142 281.208,384.281 281.347 C 384.801 281.868,385.114 281.568,385.058 280.600 C 384.989 279.402,384.944 279.384,384.428 280.347 M95.862 280.300 C 95.760 280.465,97.622 280.600,100.000 280.600 C 102.378 280.600,104.240 280.465,104.138 280.300 C 104.036 280.135,102.174 280.000,100.000 280.000 C 97.826 280.000,95.964 280.135,95.862 280.300 M119.800 280.254 C 122.628 280.550,126.312 280.577,126.139 280.300 C 126.037 280.135,124.298 280.029,122.276 280.064 C 120.254 280.099,119.140 280.185,119.800 280.254 M144.400 280.293 C 146.995 280.392,147.918 280.580,148.300 281.088 C 148.575 281.454,148.800 281.575,148.800 281.356 C 148.800 280.317,147.722 280.003,144.420 280.081 L 141.000 280.163 144.400 280.293 M164.912 280.295 C 165.964 280.377,167.584 280.376,168.512 280.292 C 169.440 280.208,168.580 280.141,166.600 280.142 C 164.620 280.143,163.860 280.212,164.912 280.295 M186.700 280.295 C 187.855 280.376,189.745 280.376,190.900 280.295 C 192.055 280.214,191.110 280.148,188.800 280.148 C 186.490 280.148,185.545 280.214,186.700 280.295 M209.900 281.093 C 210.835 281.177,212.365 281.177,213.300 281.093 C 214.235 281.009,213.470 280.940,211.600 280.940 C 209.730 280.940,208.965 281.009,209.900 281.093 M231.900 281.093 C 232.835 281.177,234.365 281.177,235.300 281.093 C 236.235 281.009,235.470 280.940,233.600 280.940 C 231.730 280.940,230.965 281.009,231.900 281.093 M253.900 281.093 C 254.835 281.177,256.365 281.177,257.300 281.093 C 258.235 281.009,257.470 280.940,255.600 280.940 C 253.730 280.940,252.965 281.009,253.900 281.093 M275.500 281.093 C 276.435 281.177,277.965 281.177,278.900 281.093 C 279.835 281.009,279.070 280.940,277.200 280.940 C 275.330 280.940,274.565 281.009,275.500 281.093 M297.900 281.095 C 299.055 281.176,300.945 281.176,302.100 281.095 C 303.255 281.014,302.310 280.948,300.000 280.948 C 297.690 280.948,296.745 281.014,297.900 281.095 M126.544 284.800 C 126.544 286.890,126.612 287.745,126.694 286.700 C 126.776 285.655,126.776 283.945,126.694 282.900 C 126.612 281.855,126.544 282.710,126.544 284.800 M95.342 285.000 C 95.341 286.980,95.408 287.840,95.492 286.912 C 95.576 285.984,95.577 284.364,95.495 283.312 C 95.412 282.260,95.343 283.020,95.342 285.000 M104.542 285.000 C 104.541 286.980,104.608 287.840,104.692 286.912 C 104.776 285.984,104.777 284.364,104.695 283.312 C 104.612 282.260,104.543 283.020,104.542 285.000 M139.660 285.076 C 139.627 286.878,139.735 288.437,139.900 288.539 C 140.065 288.642,140.150 287.618,140.088 286.263 C 139.900 282.122,139.723 281.631,139.660 285.076 M148.880 285.020 C 148.836 286.791,148.621 288.457,148.401 288.721 C 148.182 288.986,148.280 288.963,148.619 288.669 C 149.102 288.251,149.206 287.449,149.099 284.968 L 148.961 281.800 148.880 285.020 M162.080 285.051 C 162.014 287.734,162.122 288.398,162.700 288.851 C 163.315 289.333,163.341 289.324,162.918 288.781 C 162.653 288.441,162.375 286.731,162.299 284.981 L 162.161 281.800 162.080 285.051 M171.280 285.080 C 171.216 287.727,171.065 288.439,170.500 288.768 C 170.115 288.992,170.003 289.181,170.251 289.188 C 171.283 289.216,171.633 288.023,171.498 284.938 L 171.361 281.800 171.280 285.080 M251.660 285.076 C 251.627 286.878,251.735 288.437,251.900 288.539 C 252.065 288.642,252.150 287.618,252.088 286.263 C 251.900 282.122,251.723 281.631,251.660 285.076 M281.740 285.200 C 281.740 287.070,281.809 287.835,281.893 286.900 C 281.977 285.965,281.977 284.435,281.893 283.500 C 281.809 282.565,281.740 283.330,281.740 285.200 M295.740 285.200 C 295.740 287.070,295.809 287.835,295.893 286.900 C 295.977 285.965,295.977 284.435,295.893 283.500 C 295.809 282.565,295.740 283.330,295.740 285.200 M304.140 285.200 C 304.140 287.070,304.209 287.835,304.293 286.900 C 304.377 285.965,304.377 284.435,304.293 283.500 C 304.209 282.565,304.140 283.330,304.140 285.200 M382.512 284.377 C 382.472 284.906,382.640 285.083,383.037 284.931 C 383.485 284.758,383.514 284.579,383.161 284.153 C 382.579 283.452,382.581 283.451,382.512 284.377 M380.911 287.313 C 381.065 287.714,380.986 288.000,380.721 288.000 C 380.471 288.000,380.373 288.106,380.503 288.237 C 380.633 288.367,381.005 288.322,381.329 288.137 C 381.841 287.843,381.836 287.724,381.283 287.213 C 380.720 286.693,380.678 286.704,380.911 287.313 M198.100 295.476 C 198.485 295.576,199.115 295.576,199.500 295.476 C 199.885 295.375,199.570 295.293,198.800 295.293 C 198.030 295.293,197.715 295.375,198.100 295.476 M161.529 299.521 C 161.641 302.829,161.560 303.440,160.953 303.884 C 160.565 304.168,160.425 304.400,160.644 304.400 C 161.836 304.400,162.807 296.549,161.700 295.861 C 161.535 295.758,161.458 297.405,161.529 299.521 M139.344 299.600 C 139.344 301.690,139.412 302.545,139.494 301.500 C 139.576 300.455,139.576 298.745,139.494 297.700 C 139.412 296.655,139.344 297.510,139.344 299.600 M174.942 299.400 C 174.941 301.380,175.008 302.240,175.092 301.312 C 175.176 300.384,175.177 298.764,175.095 297.712 C 175.012 296.660,174.943 297.420,174.942 299.400 M184.140 299.200 C 184.140 301.070,184.209 301.835,184.293 300.900 C 184.377 299.965,184.377 298.435,184.293 297.500 C 184.209 296.565,184.140 297.330,184.140 299.200 M196.940 299.200 C 196.940 301.070,197.009 301.835,197.093 300.900 C 197.177 299.965,197.177 298.435,197.093 297.500 C 197.009 296.565,196.940 297.330,196.940 299.200 M130.425 302.851 C 130.397 303.591,131.486 304.647,131.876 304.257 C 132.018 304.116,131.918 304.000,131.654 304.000 C 131.390 304.000,131.011 303.595,130.812 303.100 C 130.568 302.491,130.443 302.410,130.425 302.851 M201.491 304.289 C 202.201 304.377,203.461 304.379,204.291 304.292 C 205.121 304.205,204.540 304.133,203.000 304.131 C 201.460 304.129,200.781 304.200,201.491 304.289 M209.100 311.500 C 213.995 311.563,222.005 311.563,226.900 311.500 C 231.795 311.436,227.790 311.384,218.000 311.384 C 208.210 311.384,204.205 311.436,209.100 311.500 M126.546 315.800 C 126.547 318.000,126.614 318.849,126.695 317.687 C 126.776 316.524,126.776 314.724,126.693 313.687 C 126.611 312.649,126.545 313.600,126.546 315.800 M366.857 312.363 C 366.455 312.613,366.436 312.775,366.784 312.990 C 367.333 313.329,367.745 313.029,367.542 312.438 C 367.458 312.196,367.176 312.165,366.857 312.363 M95.344 316.000 C 95.344 318.090,95.412 318.945,95.494 317.900 C 95.576 316.855,95.576 315.145,95.494 314.100 C 95.412 313.055,95.344 313.910,95.344 316.000 M104.544 316.000 C 104.544 318.090,104.612 318.945,104.694 317.900 C 104.776 316.855,104.776 315.145,104.694 314.100 C 104.612 313.055,104.544 313.910,104.544 316.000 M139.660 316.276 C 139.627 318.078,139.735 319.637,139.900 319.739 C 140.065 319.842,140.150 318.818,140.088 317.463 C 139.900 313.322,139.723 312.831,139.660 316.276 M148.797 316.482 C 148.688 318.397,148.743 319.820,148.918 319.644 C 149.093 319.468,149.181 317.901,149.115 316.162 L 148.993 313.000 148.797 316.482 M162.080 316.251 C 162.014 318.934,162.122 319.598,162.700 320.051 C 163.315 320.533,163.341 320.524,162.918 319.981 C 162.653 319.641,162.375 317.931,162.299 316.181 L 162.161 313.000 162.080 316.251 M251.660 316.276 C 251.627 318.078,251.735 319.637,251.900 319.739 C 252.065 319.842,252.150 318.818,252.088 317.463 C 251.900 313.322,251.723 312.831,251.660 316.276 M281.740 316.400 C 281.740 318.270,281.809 319.035,281.893 318.100 C 281.977 317.165,281.977 315.635,281.893 314.700 C 281.809 313.765,281.740 314.530,281.740 316.400 M295.740 316.400 C 295.740 318.270,295.809 319.035,295.893 318.100 C 295.977 317.165,295.977 315.635,295.893 314.700 C 295.809 313.765,295.740 314.530,295.740 316.400 M304.140 316.400 C 304.140 318.270,304.209 319.035,304.293 318.100 C 304.377 317.165,304.377 315.635,304.293 314.700 C 304.209 313.765,304.140 314.530,304.140 316.400 M363.326 317.100 C 363.189 317.485,363.005 317.933,362.918 318.095 C 362.830 318.258,363.038 318.284,363.379 318.153 C 363.721 318.022,364.000 317.679,364.000 317.391 C 364.000 317.102,364.225 316.776,364.500 316.665 C 364.794 316.546,364.706 316.450,364.287 316.432 C 363.896 316.414,363.463 316.715,363.326 317.100 M317.300 363.212 C 316.805 363.411,316.414 363.895,316.432 364.287 C 316.450 364.706,316.546 364.794,316.665 364.500 C 316.776 364.225,317.102 364.000,317.391 364.000 C 317.679 364.000,318.018 363.730,318.145 363.400 C 318.271 363.070,318.336 362.811,318.287 362.825 C 318.239 362.839,317.795 363.013,317.300 363.212 M312.254 367.002 C 312.115 367.365,312.256 367.600,312.613 367.600 C 313.260 367.600,313.407 366.975,312.842 366.626 C 312.645 366.504,312.381 366.674,312.254 367.002 M288.000 380.721 C 288.000 380.986,287.714 381.065,287.313 380.911 C 286.704 380.678,286.693 380.720,287.213 381.283 C 287.724 381.836,287.843 381.841,288.137 381.329 C 288.322 381.005,288.367 380.633,288.237 380.503 C 288.106 380.373,288.000 380.471,288.000 380.721 M283.600 382.636 C 283.600 383.165,284.749 383.511,284.931 383.037 C 285.083 382.640,284.906 382.472,284.377 382.512 C 283.950 382.544,283.600 382.600,283.600 382.636 M280.252 384.513 C 279.663 384.945,279.701 385.007,280.594 385.058 C 281.147 385.089,281.600 384.965,281.600 384.781 C 281.600 384.159,280.921 384.023,280.252 384.513 M277.200 385.843 C 277.200 386.123,277.425 386.482,277.700 386.641 C 277.975 386.799,278.067 386.781,277.903 386.601 C 277.740 386.421,277.783 386.062,277.997 385.803 C 278.266 385.479,278.203 385.333,277.794 385.333 C 277.467 385.333,277.200 385.563,277.200 385.843 M264.695 389.855 C 264.378 390.358,265.467 391.466,265.876 391.057 C 266.018 390.916,265.937 390.800,265.696 390.800 C 265.455 390.800,265.196 390.485,265.120 390.100 C 265.029 389.642,264.882 389.557,264.695 389.855 M259.889 391.981 C 259.719 392.632,259.865 392.800,260.602 392.800 C 261.257 392.800,261.499 392.595,261.427 392.100 C 261.280 391.094,260.144 391.006,259.889 391.981 M155.879 396.662 C 156.002 396.983,156.338 397.156,156.626 397.045 C 156.913 396.935,157.236 397.060,157.343 397.322 C 157.492 397.691,157.544 397.691,157.568 397.324 C 157.602 396.823,156.925 396.272,156.128 396.151 C 155.867 396.111,155.756 396.340,155.879 396.662 M242.584 396.427 C 242.439 396.661,242.420 396.953,242.543 397.076 C 242.872 397.405,244.000 396.891,244.000 396.413 C 244.000 395.870,242.921 395.880,242.584 396.427 M233.492 398.037 C 232.670 398.515,232.936 399.213,233.924 399.172 C 234.475 399.149,234.452 399.080,233.800 398.800 L 233.000 398.456 233.800 398.381 C 234.240 398.339,234.748 398.331,234.930 398.363 C 235.111 398.394,235.145 398.235,235.006 398.010 C 234.693 397.504,234.398 397.509,233.492 398.037 M177.200 399.600 C 177.200 399.820,177.470 400.000,177.800 400.000 C 178.130 400.000,178.400 399.820,178.400 399.600 C 178.400 399.380,178.130 399.200,177.800 399.200 C 177.470 399.200,177.200 399.380,177.200 399.600 " stroke="none" fill="#73e3eb" fill-rule="evenodd"></path><path id="path4" d="M144.000 78.397 C 80.249 78.627,85.420 78.333,82.494 81.903 L 81.000 83.726 81.000 154.622 L 81.000 225.519 82.639 227.459 C 85.112 230.389,84.549 230.331,110.838 230.368 C 132.626 230.398,133.912 230.440,134.538 231.131 C 135.108 231.761,135.200 232.986,135.200 239.941 L 135.200 248.020 134.174 248.410 C 133.610 248.624,131.741 248.800,130.021 248.800 C 127.116 248.800,126.876 248.864,126.652 249.700 C 126.200 251.388,126.375 258.615,126.880 259.120 C 127.578 259.818,272.822 259.818,273.520 259.120 C 273.836 258.804,274.000 257.122,274.000 254.209 C 274.000 248.153,273.881 248.000,269.177 248.000 L 265.600 248.000 265.600 239.843 C 265.600 232.773,265.684 231.653,266.233 231.443 C 266.581 231.309,277.088 231.200,289.583 231.200 L 312.300 231.200 314.450 230.241 C 317.244 228.994,318.678 227.433,319.280 224.981 C 320.255 221.010,320.188 87.718,319.210 84.433 C 318.327 81.467,317.293 80.286,314.356 78.881 L 312.512 78.000 256.356 78.097 C 225.470 78.150,174.910 78.285,144.000 78.397 M314.400 79.643 C 319.566 82.094,319.183 76.064,319.166 154.600 C 319.151 227.967,319.213 225.774,317.106 227.880 C 314.217 230.770,314.192 230.772,288.580 230.787 C 271.379 230.797,265.642 230.918,265.280 231.280 C 264.938 231.622,264.800 234.084,264.800 239.816 L 264.800 247.872 265.819 248.336 C 266.379 248.591,268.258 248.800,269.994 248.800 L 273.151 248.800 273.400 250.500 C 273.536 251.435,273.592 253.730,273.524 255.600 L 273.400 259.000 271.600 259.139 C 270.610 259.215,237.715 259.148,198.500 258.989 L 127.200 258.701 127.200 254.151 L 127.200 249.600 130.613 249.600 C 132.742 249.600,134.566 249.374,135.462 249.000 C 136.695 248.485,141.172 248.399,167.149 248.395 C 183.787 248.392,197.805 248.281,198.300 248.148 C 199.196 247.908,199.200 247.868,199.200 239.818 L 199.200 231.728 198.181 231.264 C 197.437 230.925,189.030 230.800,166.967 230.800 C 138.883 230.800,136.697 230.751,135.704 230.100 C 134.721 229.456,132.678 229.391,110.037 229.288 C 86.152 229.179,85.416 229.153,84.703 228.388 C 84.299 227.955,83.796 227.600,83.584 227.600 C 83.373 227.600,83.200 227.339,83.200 227.020 C 83.200 226.701,82.885 226.263,82.500 226.048 C 81.837 225.677,81.800 221.863,81.800 154.728 L 81.800 83.800 83.486 82.000 L 85.171 80.200 141.886 80.000 C 195.029 79.813,198.676 79.756,199.800 79.098 C 200.931 78.436,204.201 78.402,256.600 78.498 L 312.200 78.600 314.400 79.643 M93.682 86.060 C 93.398 86.357,92.588 86.794,91.882 87.032 C 90.868 87.374,90.511 87.791,90.172 89.032 C 89.936 89.894,89.619 90.870,89.468 91.200 C 88.970 92.288,89.367 217.624,89.874 219.329 C 90.424 221.179,91.459 222.400,92.476 222.400 C 92.890 222.400,93.674 222.692,94.219 223.049 C 95.673 224.002,304.496 223.304,306.913 222.338 C 308.930 221.533,309.275 221.131,309.864 218.898 C 310.482 216.557,310.641 92.231,310.028 90.719 C 309.823 90.213,309.550 89.308,309.422 88.706 C 309.257 87.936,308.864 87.535,308.094 87.352 C 307.492 87.209,306.730 86.866,306.400 86.589 C 305.476 85.813,94.423 85.288,93.682 86.060 M306.200 87.730 C 309.334 88.957,309.000 81.020,309.000 154.340 L 309.000 219.536 308.077 220.518 L 307.154 221.500 200.677 221.790 C 126.361 221.991,93.874 221.951,93.121 221.657 C 90.391 220.591,90.600 226.141,90.600 154.600 C 90.600 83.529,90.424 88.611,92.923 87.604 C 94.343 87.032,304.734 87.157,306.200 87.730 M140.600 268.884 C 74.488 269.272,79.312 269.045,77.574 271.847 C 76.351 273.818,76.370 326.025,77.594 328.100 C 79.477 331.292,66.770 330.953,199.263 331.350 C 328.387 331.737,319.085 331.878,321.720 329.492 L 323.600 327.791 323.600 299.960 L 323.600 272.130 321.717 270.365 L 319.834 268.600 260.017 268.567 C 227.118 268.549,173.380 268.692,140.600 268.884 M320.149 269.600 C 320.550 269.930,321.401 270.735,322.039 271.389 L 323.200 272.578 323.186 299.989 L 323.171 327.400 322.286 328.422 C 319.840 331.243,325.747 330.988,260.065 331.105 C 208.410 331.197,200.879 331.136,199.093 330.605 C 197.315 330.077,189.790 330.000,140.194 330.000 C 83.165 330.000,78.800 329.903,78.800 328.629 C 78.800 328.376,78.440 327.463,78.000 326.600 C 76.752 324.153,76.752 275.877,78.000 273.294 C 78.440 272.384,78.800 271.471,78.800 271.266 C 78.800 270.356,84.218 270.246,139.800 270.029 C 184.169 269.856,198.845 269.683,199.600 269.322 C 201.270 268.524,319.171 268.796,320.149 269.600 M95.078 279.455 C 94.637 279.897,94.756 289.170,95.214 290.026 C 95.585 290.719,96.087 290.800,100.000 290.800 C 105.416 290.800,105.266 290.991,105.112 284.303 L 105.000 279.400 100.178 279.288 C 97.526 279.227,95.231 279.302,95.078 279.455 M117.067 279.467 C 116.633 279.900,116.763 289.183,117.214 290.026 C 117.584 290.718,118.087 290.800,121.979 290.800 L 126.329 290.800 127.409 289.517 C 128.779 287.888,128.787 281.532,127.421 280.023 C 126.671 279.195,117.814 278.719,117.067 279.467 M139.149 279.861 C 138.087 281.139,138.397 289.105,139.544 290.035 C 140.983 291.201,147.840 291.156,149.346 289.971 C 150.659 288.938,150.990 281.047,149.771 279.829 C 148.827 278.885,139.937 278.912,139.149 279.861 M161.500 279.632 C 160.290 280.337,160.475 288.755,161.726 289.930 C 163.144 291.263,170.841 291.248,171.777 289.911 C 172.566 288.785,172.682 280.442,171.920 279.680 C 171.320 279.080,162.517 279.039,161.500 279.632 M183.993 279.809 C 183.166 280.806,182.981 287.507,183.731 289.300 L 184.359 290.800 188.757 290.800 C 194.402 290.800,194.400 290.802,194.400 284.591 C 194.400 281.678,194.236 279.996,193.920 279.680 C 193.157 278.917,184.641 279.027,183.993 279.809 M206.414 280.374 C 205.901 281.332,205.876 288.385,206.382 289.185 C 206.974 290.121,214.430 290.313,215.328 289.415 C 216.163 288.580,216.322 280.882,215.520 280.080 C 214.632 279.192,206.913 279.441,206.414 280.374 M228.800 279.991 C 227.854 280.588,227.685 288.441,228.601 289.201 C 229.694 290.108,236.136 290.265,237.431 289.416 C 238.457 288.744,238.469 288.681,238.335 284.552 C 238.172 279.510,238.279 279.612,233.200 279.612 C 231.110 279.612,229.130 279.783,228.800 279.991 M251.063 280.194 C 250.536 280.721,250.400 281.660,250.400 284.780 C 250.400 289.770,250.431 289.800,255.600 289.800 C 260.760 289.800,260.802 289.761,260.794 284.851 C 260.791 282.733,260.617 280.730,260.409 280.400 C 259.816 279.460,251.970 279.287,251.063 280.194 M273.214 280.374 C 272.417 281.863,272.693 288.579,273.585 289.386 C 274.406 290.129,281.127 290.188,282.300 289.462 C 282.982 289.040,282.999 280.759,282.320 280.080 C 281.432 279.192,273.713 279.441,273.214 280.374 M295.365 280.057 C 295.210 280.308,294.995 282.193,294.887 284.245 C 294.600 289.735,294.836 290.000,300.000 290.000 C 305.164 290.000,305.400 289.735,305.113 284.245 C 304.857 279.359,305.122 279.600,300.000 279.600 C 297.169 279.600,295.549 279.760,295.365 280.057 M104.410 281.026 C 104.838 282.153,104.944 287.560,104.557 288.567 C 104.357 289.090,103.565 289.200,100.000 289.200 C 94.991 289.200,95.200 289.383,95.200 284.993 C 95.200 280.054,95.252 280.000,100.000 280.000 C 103.947 280.000,104.027 280.019,104.410 281.026 M126.386 280.774 C 126.874 281.687,126.934 287.969,126.461 288.715 C 126.221 289.093,125.032 289.199,121.967 289.115 L 117.800 289.000 117.684 285.006 C 117.541 280.055,117.594 280.000,122.462 280.000 C 125.523 280.000,126.025 280.099,126.386 280.774 M148.451 280.661 C 149.194 281.556,149.463 287.801,148.792 288.609 C 148.138 289.398,141.294 289.449,140.232 288.673 C 139.156 287.886,139.431 281.405,140.576 280.568 C 141.748 279.711,147.721 279.782,148.451 280.661 M170.624 280.568 C 171.265 281.037,171.425 281.733,171.541 284.577 C 171.730 289.158,171.687 289.200,166.800 289.200 C 163.846 289.200,162.779 289.056,162.408 288.609 C 161.737 287.801,162.006 281.556,162.749 280.661 C 163.479 279.782,169.452 279.711,170.624 280.568 M193.201 280.802 C 193.445 281.258,193.580 283.198,193.515 285.302 L 193.400 289.000 189.000 289.000 L 184.600 289.000 184.482 285.400 C 184.298 279.753,184.100 280.000,188.794 280.000 C 192.365 280.000,192.816 280.082,193.201 280.802 M215.012 281.705 C 215.137 282.202,215.185 283.957,215.119 285.605 L 215.000 288.600 211.801 288.719 C 206.694 288.908,206.800 288.987,206.800 284.979 C 206.800 280.926,206.872 280.865,211.692 280.825 C 214.580 280.802,214.800 280.860,215.012 281.705 M237.012 281.705 C 237.137 282.202,237.185 283.957,237.119 285.605 L 237.000 288.600 233.400 288.600 L 229.800 288.600 229.683 285.261 C 229.532 280.949,229.665 280.800,233.641 280.800 C 236.572 280.800,236.800 280.861,237.012 281.705 M259.012 281.705 C 259.137 282.202,259.185 283.957,259.119 285.605 L 259.000 288.600 255.400 288.600 L 251.800 288.600 251.683 285.505 C 251.515 281.051,251.724 280.800,255.606 280.800 C 258.574 280.800,258.800 280.860,259.012 281.705 M281.111 281.423 C 281.901 281.976,282.000 282.394,282.000 285.176 C 282.000 288.848,282.084 288.786,277.100 288.795 L 274.000 288.800 274.000 284.800 L 274.000 280.800 277.111 280.800 C 279.279 280.800,280.491 280.989,281.111 281.423 M304.206 282.100 C 304.339 282.815,304.392 284.570,304.324 286.000 L 304.200 288.600 300.000 288.600 L 295.800 288.600 295.676 286.000 C 295.608 284.570,295.661 282.815,295.794 282.100 L 296.036 280.800 300.000 280.800 L 303.964 280.800 304.206 282.100 M109.010 293.893 C 107.512 294.273,107.226 295.215,107.213 299.820 C 107.197 305.394,106.994 305.200,112.857 305.200 C 118.769 305.200,118.800 305.170,118.800 299.547 C 118.800 294.038,115.639 292.213,109.010 293.893 M130.800 294.301 L 129.400 295.000 129.286 299.543 C 129.211 302.550,129.329 304.274,129.635 304.643 C 130.347 305.501,139.704 305.438,140.424 304.571 C 141.007 303.869,141.449 297.847,141.038 296.210 C 140.421 293.751,134.216 292.594,130.800 294.301 M152.789 294.277 C 151.270 295.316,151.213 295.520,151.206 299.871 C 151.198 305.301,151.080 305.200,157.405 305.200 C 163.173 305.200,162.890 305.411,163.125 300.938 C 163.378 296.128,163.054 294.865,161.389 294.170 C 159.414 293.344,154.054 293.411,152.789 294.277 M174.648 294.902 C 173.400 296.537,173.151 301.350,174.185 303.825 L 174.770 305.225 179.685 305.112 L 184.600 305.000 184.712 299.959 C 184.849 293.724,184.953 293.851,179.587 293.664 L 175.696 293.528 174.648 294.902 M196.880 294.480 C 196.190 295.170,196.211 304.753,196.904 305.018 C 197.181 305.125,199.476 305.074,202.004 304.906 L 206.600 304.600 206.714 300.251 C 206.876 294.090,206.800 294.000,201.471 294.000 C 198.807 294.000,197.191 294.169,196.880 294.480 M219.280 295.280 C 218.970 295.590,218.800 297.191,218.800 299.800 C 218.800 304.874,218.726 304.800,223.800 304.800 C 226.409 304.800,228.010 304.630,228.320 304.320 C 228.630 304.010,228.800 302.409,228.800 299.800 C 228.800 294.726,228.874 294.800,223.800 294.800 C 221.191 294.800,219.590 294.970,219.280 295.280 M241.429 295.429 C 240.947 295.910,240.800 296.931,240.800 299.800 C 240.800 304.728,240.875 304.800,245.952 304.800 C 251.222 304.800,251.314 304.719,251.525 299.902 C 251.683 296.289,251.646 296.078,250.756 295.454 C 249.438 294.531,242.346 294.511,241.429 295.429 M263.785 295.472 C 262.887 296.370,263.079 303.826,264.015 304.418 C 264.901 304.978,272.544 304.896,273.120 304.320 C 273.430 304.010,273.600 302.409,273.600 299.800 C 273.600 297.191,273.430 295.590,273.120 295.280 C 272.318 294.478,264.620 294.637,263.785 295.472 M286.080 295.280 C 285.770 295.590,285.600 297.191,285.600 299.800 C 285.600 304.874,285.526 304.800,290.600 304.800 C 293.209 304.800,294.810 304.630,295.120 304.320 C 295.430 304.010,295.600 302.409,295.600 299.800 C 295.600 294.726,295.674 294.800,290.600 294.800 C 287.991 294.800,286.390 294.970,286.080 295.280 M117.000 299.800 L 117.000 304.200 112.833 304.315 C 107.833 304.452,108.014 304.631,108.006 299.567 C 107.999 294.871,107.686 295.151,112.779 295.287 L 117.000 295.400 117.000 299.800 M139.120 295.680 C 139.718 296.278,139.770 302.534,139.186 303.626 C 138.688 304.556,131.761 304.801,130.880 303.920 C 130.229 303.269,130.229 296.331,130.880 295.680 C 131.183 295.377,132.702 295.200,135.000 295.200 C 137.298 295.200,138.817 295.377,139.120 295.680 M161.226 295.614 C 161.906 295.978,162.000 296.480,162.000 299.734 C 162.000 304.383,161.983 304.400,157.400 304.400 C 155.102 304.400,153.583 304.223,153.280 303.920 C 152.602 303.242,152.620 295.739,153.300 295.465 C 154.245 295.084,160.453 295.200,161.226 295.614 M184.000 295.800 C 184.539 296.449,184.424 302.991,183.858 303.907 C 183.175 305.011,175.636 304.548,175.190 303.374 C 174.630 301.901,174.696 296.264,175.280 295.680 C 176.029 294.931,183.363 295.032,184.000 295.800 M205.514 295.826 C 205.899 295.946,206.000 297.017,205.914 300.093 L 205.800 304.200 201.835 304.315 C 199.489 304.383,197.702 304.262,197.459 304.019 C 196.822 303.382,196.601 296.522,197.194 295.807 C 197.652 295.255,203.714 295.269,205.514 295.826 M227.600 299.800 L 227.600 304.000 224.344 304.000 C 220.240 304.000,220.030 303.774,220.013 299.333 C 219.998 295.521,219.820 295.674,224.300 295.632 L 227.600 295.600 227.600 299.800 M249.367 295.843 C 250.107 296.127,250.280 301.212,249.610 302.974 C 249.123 304.255,243.114 304.594,242.643 303.367 C 242.313 302.508,242.333 296.200,242.667 295.867 C 243.000 295.533,248.510 295.514,249.367 295.843 M271.767 295.843 C 272.661 296.186,272.669 301.838,271.777 303.111 C 270.970 304.264,265.068 304.476,264.643 303.367 C 264.313 302.508,264.333 296.200,264.667 295.867 C 265.000 295.533,270.909 295.513,271.767 295.843 M294.714 299.689 C 294.849 304.260,295.021 304.112,289.799 303.919 L 286.600 303.800 286.483 300.232 C 286.323 295.307,286.097 295.551,290.693 295.685 L 294.600 295.800 294.714 299.689 M95.078 310.655 C 94.925 310.808,94.800 313.147,94.800 315.853 C 94.800 321.755,94.657 321.600,100.097 321.600 C 105.351 321.600,105.252 321.719,105.113 315.596 L 105.000 310.600 100.178 310.488 C 97.526 310.427,95.231 310.502,95.078 310.655 M117.067 310.667 C 116.158 311.575,116.812 320.677,117.819 321.136 C 120.955 322.565,127.744 321.360,128.265 319.282 C 128.777 317.244,128.177 311.519,127.392 310.945 C 126.610 310.373,117.603 310.130,117.067 310.667 M139.259 310.755 C 138.628 311.155,138.142 317.099,138.558 319.317 C 138.976 321.543,145.297 322.573,149.013 321.020 L 150.400 320.441 150.400 315.834 C 150.400 311.690,150.322 311.187,149.626 310.814 C 148.697 310.317,140.028 310.268,139.259 310.755 M161.500 310.804 C 160.900 311.178,160.800 311.890,160.800 315.810 L 160.800 320.379 162.069 321.036 C 163.603 321.829,235.606 321.533,237.705 320.724 C 239.243 320.132,239.960 312.553,238.600 311.259 C 238.000 310.689,162.402 310.242,161.500 310.804 M250.880 311.280 C 250.569 311.591,250.400 313.206,250.400 315.866 C 250.400 320.829,250.369 320.800,255.600 320.800 C 260.840 320.800,260.800 320.839,260.800 315.800 C 260.800 312.085,260.715 311.583,260.026 311.214 C 258.924 310.624,251.482 310.678,250.880 311.280 M273.292 311.268 C 272.625 311.935,272.614 319.654,273.280 320.320 C 273.999 321.039,281.758 320.973,282.365 320.242 C 282.670 319.875,282.789 318.201,282.714 315.342 L 282.600 311.000 278.192 310.888 C 275.105 310.809,273.637 310.923,273.292 311.268 M295.365 311.257 C 294.834 312.116,294.674 319.016,295.163 319.931 C 295.597 320.742,295.922 320.800,300.000 320.800 C 305.379 320.800,305.392 320.786,305.110 315.388 C 304.857 310.567,305.117 310.800,300.000 310.800 C 297.169 310.800,295.549 310.960,295.365 311.257 M104.548 312.100 C 104.989 313.746,104.824 319.416,104.320 319.920 C 104.013 320.227,102.453 320.400,100.000 320.400 C 95.259 320.400,95.198 320.347,95.205 316.220 C 95.214 310.942,94.968 311.200,100.000 311.200 C 104.128 311.200,104.317 311.237,104.548 312.100 M126.557 311.833 C 127.010 313.012,126.822 319.418,126.320 319.920 C 125.818 320.422,119.412 320.610,118.233 320.157 C 117.577 319.906,117.247 312.086,117.867 311.467 C 118.486 310.847,126.306 311.177,126.557 311.833 M148.658 311.693 C 148.825 311.965,149.039 313.795,149.133 315.761 C 149.348 320.256,149.201 320.400,144.400 320.400 C 139.599 320.400,139.452 320.256,139.667 315.761 C 139.893 311.032,139.718 311.200,144.400 311.200 C 147.102 311.200,148.449 311.356,148.658 311.693 M237.115 311.544 C 237.493 311.780,237.600 312.927,237.515 315.833 L 237.400 319.800 200.300 320.149 C 169.543 320.439,163.090 320.407,162.556 319.964 C 161.872 319.396,161.859 312.797,162.540 311.696 C 162.900 311.114,236.190 310.965,237.115 311.544 M259.000 315.800 L 259.000 319.800 255.400 319.800 L 251.800 319.800 251.673 317.400 C 251.604 316.080,251.661 314.228,251.800 313.285 L 252.054 311.570 255.527 311.685 L 259.000 311.800 259.000 315.800 M281.536 312.619 C 281.791 313.179,282.000 314.958,282.000 316.572 C 282.000 320.019,282.048 319.986,277.100 319.995 L 274.000 320.000 274.000 315.800 L 274.000 311.600 277.536 311.600 C 280.937 311.600,281.089 311.639,281.536 312.619 M304.202 313.300 C 304.340 314.235,304.396 316.080,304.327 317.400 L 304.200 319.800 300.000 319.800 L 295.800 319.800 295.673 317.400 C 295.604 316.080,295.660 314.235,295.798 313.300 L 296.049 311.600 300.000 311.600 L 303.951 311.600 304.202 313.300 " stroke="none" fill="#70708d" fill-rule="evenodd"></path></g></svg>